<svg width="58" height="22" viewBox="0 0 58 22" fill="none" xmlns="http://www.w3.org/2000/svg">
<path fill-rule="evenodd" clip-rule="evenodd" d="M3.87891 0.286377C2.22205 0.286377 0.878906 1.62952 0.878906 3.28637V18.6768C0.878906 20.3336 2.22205 21.6768 3.8789 21.6768H51.355C53.0118 21.6768 54.355 20.3337 54.355 18.6768V13.8336L57.9199 10.9816L54.355 8.12964V3.28638C54.355 1.62952 53.0118 0.286377 51.355 0.286377H3.87891Z" fill="#100DB1"/>
<mask id="mask0_43_5526" style="mask-type:alpha" maskUnits="userSpaceOnUse" x="0" y="0" width="58" height="22">
<path fill-rule="evenodd" clip-rule="evenodd" d="M3.87891 0.286377C2.22205 0.286377 0.878906 1.62952 0.878906 3.28637V18.6768C0.878906 20.3336 2.22205 21.6768 3.8789 21.6768H51.355C53.0118 21.6768 54.355 20.3337 54.355 18.6768V13.8336L57.9199 10.9816L54.355 8.12964V3.28638C54.355 1.62952 53.0118 0.286377 51.355 0.286377H3.87891Z" fill="white"/>
</mask>
<g mask="url(#mask0_43_5526)">
</g>
</svg>
