<svg width="62" height="22" viewBox="0 0 62 22" fill="none" xmlns="http://www.w3.org/2000/svg">
<path fill-rule="evenodd" clip-rule="evenodd" d="M7.42628 0.510742C5.76943 0.510742 4.42628 1.85388 4.42628 3.51074V8.35403L0.861403 11.2059L4.42628 14.0579V18.9012C4.42628 20.558 5.76943 21.9012 7.42628 21.9012H58.4674C60.1242 21.9012 61.4674 20.558 61.4674 18.9012V3.51074C61.4674 1.85389 60.1242 0.510742 58.4674 0.510742H7.42628Z" fill="#F80D38"/>
<mask id="mask0_43_5533" style="mask-type:alpha" maskUnits="userSpaceOnUse" x="0" y="0" width="62" height="22">
<path fill-rule="evenodd" clip-rule="evenodd" d="M7.42628 0.510742C5.76943 0.510742 4.42628 1.85388 4.42628 3.51074V8.35403L0.861403 11.2059L4.42628 14.0579V18.9012C4.42628 20.558 5.76943 21.9012 7.42628 21.9012H58.4674C60.1242 21.9012 61.4674 20.558 61.4674 18.9012V3.51074C61.4674 1.85389 60.1242 0.510742 58.4674 0.510742H7.42628Z" fill="white"/>
</mask>
<g mask="url(#mask0_43_5533)">
</g>
</svg>
