<svg width="61" height="23" viewBox="0 0 61 23" fill="none" xmlns="http://www.w3.org/2000/svg">
<path fill-rule="evenodd" clip-rule="evenodd" d="M6.92042 0.80249C5.26357 0.80249 3.92042 2.14563 3.92042 3.80249V8.64578L0.355544 11.4977L3.92042 14.3497V19.1929C3.92042 20.8498 5.26357 22.1929 6.92042 22.1929H57.9615C59.6184 22.1929 60.9615 20.8498 60.9615 19.1929V3.80249C60.9615 2.14564 59.6184 0.80249 57.9615 0.80249H6.92042Z" fill="#F80D38"/>
<mask id="mask0_43_5472" style="mask-type:alpha" maskUnits="userSpaceOnUse" x="0" y="0" width="61" height="23">
<path fill-rule="evenodd" clip-rule="evenodd" d="M6.92042 0.80249C5.26357 0.80249 3.92042 2.14563 3.92042 3.80249V8.64578L0.355544 11.4977L3.92042 14.3497V19.1929C3.92042 20.8498 5.26357 22.1929 6.92042 22.1929H57.9615C59.6184 22.1929 60.9615 20.8498 60.9615 19.1929V3.80249C60.9615 2.14564 59.6184 0.80249 57.9615 0.80249H6.92042Z" fill="white"/>
</mask>
<g mask="url(#mask0_43_5472)">
</g>
</svg>
