<svg width="58" height="22" viewBox="0 0 58 22" fill="none" xmlns="http://www.w3.org/2000/svg">
<path fill-rule="evenodd" clip-rule="evenodd" d="M3.0332 0.326416C1.37635 0.326416 0.0332031 1.66956 0.0332031 3.32641V18.7168C0.0332031 20.3737 1.37635 21.7168 3.0332 21.7168H50.5093C52.1661 21.7168 53.5093 20.3737 53.5093 18.7168V13.8737L57.0742 11.0216L53.5093 8.16968V3.32642C53.5093 1.66956 52.1661 0.326416 50.5093 0.326416H3.0332Z" fill="#100DB1"/>
<mask id="mask0_43_5465" style="mask-type:alpha" maskUnits="userSpaceOnUse" x="0" y="0" width="58" height="22">
<path fill-rule="evenodd" clip-rule="evenodd" d="M3.0332 0.326416C1.37635 0.326416 0.0332031 1.66956 0.0332031 3.32641V18.7168C0.0332031 20.3737 1.37635 21.7168 3.0332 21.7168H50.5093C52.1661 21.7168 53.5093 20.3737 53.5093 18.7168V13.8737L57.0742 11.0216L53.5093 8.16968V3.32642C53.5093 1.66956 52.1661 0.326416 50.5093 0.326416H3.0332Z" fill="white"/>
</mask>
<g mask="url(#mask0_43_5465)">
</g>
</svg>
