<svg width="13" height="12" viewBox="0 0 13 12" fill="none" xmlns="http://www.w3.org/2000/svg">
<path d="M9.55225 12H3.17725C1.62643 12 0.364746 10.7383 0.364746 9.1875V5.22656C0.364746 3.67575 1.62643 2.41406 3.17725 2.41406H5.05225C5.31114 2.41406 5.521 2.62392 5.521 2.88281C5.521 3.1417 5.31114 3.35156 5.05225 3.35156H3.17725C2.14337 3.35156 1.30225 4.19269 1.30225 5.22656V9.1875C1.30225 10.2214 2.14337 11.0625 3.17725 11.0625H9.55225C10.5861 11.0625 11.4272 10.2214 11.4272 9.1875V6.49219C11.4272 6.2333 11.6371 6.02344 11.896 6.02344C12.1549 6.02344 12.3647 6.2333 12.3647 6.49219V9.1875C12.3647 10.7383 11.1031 12 9.55225 12ZM12.3647 2.95312C12.3647 1.32476 11.04 0 9.41162 0C7.78325 0 6.4585 1.32476 6.4585 2.95312C6.4585 4.58149 7.78325 5.90625 9.41162 5.90625C11.04 5.90625 12.3647 4.58149 12.3647 2.95312ZM11.4272 2.95312C11.4272 4.06453 10.523 4.96875 9.41162 4.96875C8.30021 4.96875 7.396 4.06453 7.396 2.95312C7.396 1.84172 8.30021 0.9375 9.41162 0.9375C10.523 0.9375 11.4272 1.84172 11.4272 2.95312Z" fill="white"/>
<path d="M6.36461 8.71695C5.76285 8.71695 5.16118 8.52546 4.65913 8.14254L2.42479 6.44344C2.21872 6.28673 2.17869 5.99264 2.3354 5.78658C2.49212 5.58049 2.78619 5.54046 2.99225 5.69719L5.22714 7.39669C5.89717 7.90774 6.83237 7.90772 7.50186 7.39711L8.28311 6.79955C8.48875 6.64228 8.78296 6.68147 8.94022 6.88709C9.09751 7.0927 9.05833 7.38691 8.85269 7.54418L8.07093 8.14212C7.56847 8.52537 6.9665 8.71695 6.36461 8.71695ZM9.8804 3.67969V2.22656C9.8804 1.96767 9.67054 1.75781 9.41165 1.75781H8.9429C8.68401 1.75781 8.47415 1.96767 8.47415 2.22656C8.47415 2.48545 8.68401 2.69531 8.9429 2.69531V3.67969C8.9429 3.93858 9.15276 4.14844 9.41165 4.14844C9.67054 4.14844 9.8804 3.93858 9.8804 3.67969Z" fill="#F80D38"/>
</svg>
