<svg width="13" height="13" viewBox="0 0 13 13" fill="none" xmlns="http://www.w3.org/2000/svg">
<path d="M9.55225 12.0848H3.17725C1.62643 12.0848 0.364746 10.8231 0.364746 9.27228V5.31134C0.364746 3.76053 1.62643 2.49884 3.17725 2.49884H5.05225C5.31114 2.49884 5.521 2.7087 5.521 2.96759C5.521 3.22648 5.31114 3.43634 5.05225 3.43634H3.17725C2.14337 3.43634 1.30225 4.27747 1.30225 5.31134V9.27228C1.30225 10.3062 2.14337 11.1473 3.17725 11.1473H9.55225C10.5861 11.1473 11.4272 10.3062 11.4272 9.27228V6.57697C11.4272 6.31807 11.6371 6.10822 11.896 6.10822C12.1549 6.10822 12.3647 6.31807 12.3647 6.57697V9.27228C12.3647 10.8231 11.1031 12.0848 9.55225 12.0848ZM12.3647 3.0379C12.3647 1.40954 11.04 0.0847778 9.41162 0.0847778C7.78325 0.0847778 6.4585 1.40954 6.4585 3.0379C6.4585 4.66627 7.78325 5.99103 9.41162 5.99103C11.04 5.99103 12.3647 4.66627 12.3647 3.0379ZM11.4272 3.0379C11.4272 4.14931 10.523 5.05353 9.41162 5.05353C8.30021 5.05353 7.396 4.14931 7.396 3.0379C7.396 1.9265 8.30021 1.02228 9.41162 1.02228C10.523 1.02228 11.4272 1.9265 11.4272 3.0379Z" fill="white"/>
<path d="M6.36461 8.80172C5.76285 8.80172 5.16118 8.61024 4.65913 8.22732L2.42479 6.52822C2.21872 6.37151 2.17869 6.07742 2.3354 5.87136C2.49212 5.66527 2.78619 5.62524 2.99225 5.78197L5.22714 7.48147C5.89717 7.99252 6.83237 7.9925 7.50186 7.48189L8.28311 6.88433C8.48875 6.72706 8.78296 6.76625 8.94022 6.97186C9.09751 7.17748 9.05833 7.47169 8.85269 7.62896L8.07093 8.2269C7.56847 8.61015 6.9665 8.80172 6.36461 8.80172ZM9.8804 3.76447V2.31134C9.8804 2.05245 9.67054 1.84259 9.41165 1.84259H8.9429C8.68401 1.84259 8.47415 2.05245 8.47415 2.31134C8.47415 2.57023 8.68401 2.78009 8.9429 2.78009V3.76447C8.9429 4.02336 9.15276 4.23322 9.41165 4.23322C9.67054 4.23322 9.8804 4.02336 9.8804 3.76447Z" fill="#F80D38"/>
</svg>
