<svg width="10" height="3" viewBox="0 0 10 3" fill="none" xmlns="http://www.w3.org/2000/svg">
<path d="M2.39337 2.27066C2.87166 1.99451 3.03554 1.38292 2.75939 0.90463C2.48325 0.426337 1.87166 0.262462 1.39337 0.538605C0.915076 0.814747 0.751201 1.42634 1.02734 1.90463C1.30349 2.38292 1.91508 2.5468 2.39337 2.27066Z" fill="white"/>
<path d="M5.39532 2.26968C5.87361 1.99354 6.03749 1.38195 5.76135 0.903654C5.48521 0.425361 4.87361 0.261486 4.39532 0.537628C3.91703 0.813771 3.75315 1.42536 4.0293 1.90365C4.30544 2.38195 4.91703 2.54582 5.39532 2.26968Z" fill="white"/>
<path d="M8.39679 2.2687C8.87508 1.99256 9.03895 1.38097 8.76281 0.902677C8.48667 0.424384 7.87508 0.260509 7.39679 0.536652C6.91849 0.812794 6.75462 1.42438 7.03076 1.90268C7.3069 2.38097 7.91849 2.54484 8.39679 2.2687Z" fill="white"/>
</svg>
