<svg width="10" height="3" viewBox="0 0 10 3" fill="none" xmlns="http://www.w3.org/2000/svg">
<path d="M2.39337 2.47271C2.87166 2.19657 3.03554 1.58498 2.75939 1.10669C2.48325 0.628394 1.87166 0.464519 1.39337 0.740662C0.915076 1.0168 0.751201 1.62839 1.02734 2.10669C1.30349 2.58498 1.91508 2.74885 2.39337 2.47271Z" fill="white"/>
<path d="M5.39532 2.47174C5.87361 2.19559 6.03749 1.584 5.76135 1.10571C5.48521 0.627418 4.87361 0.463543 4.39532 0.739685C3.91703 1.01583 3.75315 1.62742 4.0293 2.10571C4.30544 2.584 4.91703 2.74788 5.39532 2.47174Z" fill="white"/>
<path d="M8.39679 2.47076C8.87508 2.19462 9.03895 1.58303 8.76281 1.10473C8.48667 0.626441 7.87508 0.462566 7.39679 0.738708C6.91849 1.01485 6.75462 1.62644 7.03076 2.10473C7.3069 2.58303 7.91849 2.7469 8.39679 2.47076Z" fill="white"/>
</svg>
