<svg width="20" height="20" viewBox="0 0 20 20" fill="none" xmlns="http://www.w3.org/2000/svg">
<path d="M14.8818 19.1161H4.78809C2.33263 19.1161 0.334961 17.1184 0.334961 14.663V4.56921C0.334961 2.11376 2.33263 0.116089 4.78809 0.116089H14.8818C17.3373 0.116089 19.335 2.11376 19.335 4.56921V14.663C19.335 17.1184 17.3373 19.1161 14.8818 19.1161ZM4.78809 1.60046C3.15112 1.60046 1.81934 2.93225 1.81934 4.56921V14.663C1.81934 16.2999 3.15112 17.6317 4.78809 17.6317H14.8818C16.5188 17.6317 17.8506 16.2999 17.8506 14.663V4.56921C17.8506 2.93225 16.5188 1.60046 14.8818 1.60046H4.78809ZM8.16504 3.86414C8.16504 3.45423 7.83276 3.12195 7.42285 3.12195H4.30566C3.89575 3.12195 3.56348 3.45423 3.56348 3.86414C3.56348 4.27405 3.89575 4.60632 4.30566 4.60632H7.42285C7.83276 4.60632 8.16504 4.27405 8.16504 3.86414ZM14.9561 12.5106C14.9561 12.1007 14.6238 11.7684 14.2139 11.7684H8.0166C7.60669 11.7684 7.27441 12.1007 7.27441 12.5106C7.27441 12.9205 7.60669 13.2528 8.0166 13.2528H14.2139C14.6238 13.2528 14.9561 12.9205 14.9561 12.5106ZM15.958 15.4052C15.958 14.9952 15.6257 14.663 15.2158 14.663H13.583C13.1731 14.663 12.8408 14.9952 12.8408 15.4052C12.8408 15.8151 13.1731 16.1473 13.583 16.1473H15.2158C15.6257 16.1473 15.958 15.8151 15.958 15.4052Z" fill="#100DB1"/>
<path d="M15.3271 10.3583H10.0947C9.68482 10.3583 9.35254 10.026 9.35254 9.61609C9.35254 9.20618 9.68482 8.8739 10.0947 8.8739H15.3271C15.7371 8.8739 16.0693 9.20618 16.0693 9.61609C16.0693 10.026 15.7371 10.3583 15.3271 10.3583ZM13.4717 6.75867C13.4717 6.34876 13.1394 6.01648 12.7295 6.01648H5.79004C5.38013 6.01648 5.04785 6.34876 5.04785 6.75867C5.04785 7.16858 5.38013 7.50085 5.79004 7.50085H12.7295C13.1394 7.50085 13.4717 7.16858 13.4717 6.75867Z" fill="#F80D38"/>
</svg>
