<svg width="20" height="21" viewBox="0 0 20 21" fill="none" xmlns="http://www.w3.org/2000/svg">
<path d="M10.0654 14.5932C12.3167 14.5932 14.1586 12.7513 14.1586 10.5C14.1586 8.24879 12.3167 6.40686 10.0654 6.40686" fill="white"/>
<path d="M10.0653 14.5932C12.326 14.5932 14.1585 12.7606 14.1585 10.5C14.1585 8.23944 12.326 6.40686 10.0653 6.40686C7.80475 6.40686 5.97217 8.23944 5.97217 10.5C5.97217 12.7606 7.80475 14.5932 10.0653 14.5932Z" stroke="white" stroke-width="1.5" stroke-linecap="round" stroke-linejoin="round"/>
<path d="M16.8877 10.5H18.9343" stroke="white" stroke-width="1.5" stroke-linecap="round" stroke-linejoin="round"/>
<path d="M1.19678 10.5H3.24337" stroke="white" stroke-width="1.5" stroke-linecap="round" stroke-linejoin="round"/>
<path d="M10.0654 17.322V19.3686" stroke="white" stroke-width="1.5" stroke-linecap="round" stroke-linejoin="round"/>
<path d="M10.0654 1.63147V3.67806" stroke="white" stroke-width="1.5" stroke-linecap="round" stroke-linejoin="round"/>
<path d="M16.3418 4.22388L14.9092 5.65639" stroke="white" stroke-width="1.5" stroke-linecap="round" stroke-linejoin="round"/>
<path d="M16.2734 16.7081L14.8408 15.2754" stroke="white" stroke-width="1.5" stroke-linecap="round" stroke-linejoin="round"/>
<path d="M5.35839 5.79291L3.92578 4.36023" stroke="white" stroke-width="1.5" stroke-linecap="round" stroke-linejoin="round"/>
<path d="M5.22167 15.3437L3.78906 16.7762" stroke="white" stroke-width="1.5" stroke-linecap="round" stroke-linejoin="round"/>
</svg>
