<svg width="17" height="17" viewBox="0 0 17 17" fill="none" xmlns="http://www.w3.org/2000/svg">
<path d="M13.0537 11.0901C11.5891 11.0901 10.3975 9.89849 10.3975 8.43384C10.3975 6.96918 11.5891 5.77759 13.0537 5.77759C14.5184 5.77759 15.71 6.96918 15.71 8.43384C15.71 9.89849 14.5184 11.0901 13.0537 11.0901ZM13.0537 7.02759C12.2783 7.02759 11.6475 7.65843 11.6475 8.43384C11.6475 9.20924 12.2783 9.84009 13.0537 9.84009C13.8291 9.84009 14.46 9.20924 14.46 8.43384C14.46 7.65843 13.8291 7.02759 13.0537 7.02759ZM8.08496 15.5276C8.08496 15.1824 7.80515 14.9026 7.45996 14.9026H4.5843C3.20618 14.9026 2.08496 13.7814 2.08496 12.4032V3.90193C2.08496 2.52381 3.20618 1.40259 4.5843 1.40259H10.3362C11.7144 1.40259 12.8356 2.52381 12.8356 3.90193C12.8356 4.24712 13.1154 4.52693 13.4606 4.52693C13.8058 4.52693 14.0856 4.24712 14.0856 3.90193C14.0856 1.83456 12.4036 0.152588 10.3356 0.152588H4.5843C2.51693 0.152588 0.834961 1.83456 0.834961 3.90193V12.4032C0.834961 14.4706 2.51693 16.1526 4.5843 16.1526H7.45996C7.80515 16.1526 8.08496 15.8728 8.08496 15.5276V15.5276ZM9.11621 7.24634C9.11621 6.90115 8.8364 6.62134 8.49121 6.62134H5.42871C5.08352 6.62134 4.80371 6.90115 4.80371 7.24634C4.80371 7.59153 5.08352 7.87134 5.42871 7.87134H8.49121C8.8364 7.87134 9.11621 7.59153 9.11621 7.24634ZM9.11621 12.0276C9.11621 11.6824 8.8364 11.4026 8.49121 11.4026H5.42871C5.08352 11.4026 4.80371 11.6824 4.80371 12.0276C4.80371 12.3728 5.08352 12.6526 5.42871 12.6526H8.49121C8.8364 12.6526 9.11621 12.3728 9.11621 12.0276ZM9.11621 9.62134C9.11621 9.27615 8.8364 8.99634 8.49121 8.99634H5.42871C5.08352 8.99634 4.80371 9.27615 4.80371 9.62134C4.80371 9.96653 5.08352 10.2463 5.42871 10.2463H8.49121C8.8364 10.2463 9.11621 9.96653 9.11621 9.62134Z" fill="white"/>
<path d="M16.21 16.1526C15.8648 16.1526 15.585 15.8728 15.585 15.5276C15.585 14.2869 14.5823 13.2776 13.3498 13.2776H12.8201C11.5876 13.2776 10.585 14.2869 10.585 15.5276C10.585 15.8728 10.3051 16.1526 9.95996 16.1526C9.61477 16.1526 9.33496 15.8728 9.33496 15.5276C9.33496 13.5977 10.8984 12.0276 12.8201 12.0276H13.3498C15.2715 12.0276 16.835 13.5977 16.835 15.5276C16.835 15.8728 16.5551 16.1526 16.21 16.1526ZM10.3662 4.84009C10.3662 4.4949 10.0864 4.21509 9.74121 4.21509H5.42871C5.08352 4.21509 4.80371 4.4949 4.80371 4.84009C4.80371 5.18528 5.08352 5.46509 5.42871 5.46509H9.74121C10.0864 5.46509 10.3662 5.18528 10.3662 4.84009Z" fill="#F80D38"/>
</svg>
