<svg width="9" height="4" viewBox="0 0 9 4" fill="none" xmlns="http://www.w3.org/2000/svg">
<path d="M2.03253 3.23266C2.51082 2.95652 2.6747 2.34493 2.39855 1.86664C2.12241 1.38834 1.51082 1.22447 1.03253 1.50061C0.554237 1.77675 0.390362 2.38834 0.666504 2.86664C0.942646 3.34493 1.55424 3.5088 2.03253 3.23266Z" fill="white"/>
<path d="M5.03399 3.23168C5.51229 2.95554 5.67616 2.34395 5.40002 1.86566C5.12388 1.38737 4.51229 1.22349 4.03399 1.49963C3.5557 1.77578 3.39183 2.38737 3.66797 2.86566C3.94411 3.34395 4.5557 3.50783 5.03399 3.23168Z" fill="white"/>
<path d="M8.03595 3.23071C8.51424 2.95457 8.67812 2.34298 8.40197 1.86468C8.12583 1.38639 7.51424 1.22251 7.03595 1.49866C6.55765 1.7748 6.39378 2.38639 6.66992 2.86468C6.94606 3.34298 7.55765 3.50685 8.03595 3.23071Z" fill="white"/>
</svg>
