<svg width="9" height="4" viewBox="0 0 9 4" fill="none" xmlns="http://www.w3.org/2000/svg">
<path d="M2.03253 2.95184C2.51082 2.6757 2.6747 2.06411 2.39855 1.58581C2.12241 1.10752 1.51082 0.943645 1.03253 1.21979C0.554237 1.49593 0.390362 2.10752 0.666504 2.58581C0.942646 3.06411 1.55424 3.22798 2.03253 2.95184Z" fill="white"/>
<path d="M5.03399 2.95086C5.51229 2.67472 5.67616 2.06313 5.40002 1.58484C5.12388 1.10654 4.51229 0.942669 4.03399 1.21881C3.5557 1.49495 3.39183 2.10654 3.66797 2.58484C3.94411 3.06313 4.5557 3.227 5.03399 2.95086Z" fill="white"/>
<path d="M8.03595 2.94989C8.51424 2.67374 8.67812 2.06215 8.40197 1.58386C8.12583 1.10557 7.51424 0.941692 7.03595 1.21783C6.55765 1.49398 6.39378 2.10557 6.66992 2.58386C6.94606 3.06215 7.55765 3.22603 8.03595 2.94989Z" fill="white"/>
</svg>
