<svg width="10" height="4" viewBox="0 0 10 4" fill="none" xmlns="http://www.w3.org/2000/svg">
<path d="M2.82989 2.75717C3.30819 2.48102 3.47206 1.86943 3.19592 1.39114C2.91978 0.912849 2.30819 0.748974 1.82989 1.02512C1.3516 1.30126 1.18772 1.91285 1.46387 2.39114C1.74001 2.86943 2.3516 3.03331 2.82989 2.75717Z" fill="white"/>
<path d="M5.83185 2.75619C6.31014 2.48005 6.47401 1.86846 6.19787 1.39016C5.92173 0.911872 5.31014 0.747997 4.83185 1.02414C4.35355 1.30028 4.18968 1.91187 4.46582 2.39016C4.74196 2.86846 5.35355 3.03233 5.83185 2.75619Z" fill="white"/>
<path d="M8.83331 2.75521C9.3116 2.47907 9.47548 1.86748 9.19934 1.38919C8.92319 0.910896 8.3116 0.74702 7.83331 1.02316C7.35502 1.29931 7.19114 1.9109 7.46729 2.38919C7.74343 2.86748 8.35502 3.03136 8.83331 2.75521Z" fill="white"/>
</svg>
