<svg width="10" height="4" viewBox="0 0 10 4" fill="none" xmlns="http://www.w3.org/2000/svg">
<path d="M2.39337 2.57199C2.87166 2.29584 3.03554 1.68425 2.75939 1.20596C2.48325 0.727668 1.87166 0.563793 1.39337 0.839935C0.915076 1.11608 0.751201 1.72767 1.02734 2.20596C1.30349 2.68425 1.91508 2.84813 2.39337 2.57199Z" fill="white"/>
<path d="M5.39532 2.57101C5.87361 2.29487 6.03749 1.68328 5.76135 1.20498C5.48521 0.726691 4.87361 0.562816 4.39532 0.838959C3.91703 1.1151 3.75315 1.72669 4.0293 2.20498C4.30544 2.68328 4.91703 2.84715 5.39532 2.57101Z" fill="white"/>
<path d="M8.39679 2.57003C8.87508 2.29389 9.03895 1.6823 8.76281 1.20401C8.48667 0.725715 7.87508 0.56184 7.39679 0.837982C6.91849 1.11412 6.75462 1.72571 7.03076 2.20401C7.3069 2.6823 7.91849 2.84618 8.39679 2.57003Z" fill="white"/>
</svg>
