<svg width="16" height="17" viewBox="0 0 16 17" fill="none" xmlns="http://www.w3.org/2000/svg">
<path d="M12.2388 10.3491C11.9235 10.0209 11.5433 9.84534 11.1402 9.84534C10.7404 9.84534 10.3569 10.0176 10.0286 10.3459L9.00153 11.3697C8.91702 11.3242 8.83251 11.282 8.75125 11.2397C8.63424 11.1812 8.52373 11.1259 8.42948 11.0674C7.46739 10.4564 6.59306 9.66007 5.75448 8.62973C5.3482 8.11618 5.07517 7.68389 4.87691 7.2451C5.14343 7.00133 5.39045 6.74781 5.63097 6.50403C5.72198 6.41303 5.81299 6.31877 5.904 6.22776C6.58656 5.5452 6.58656 4.66112 5.904 3.97856L5.01667 3.09123C4.91591 2.99047 4.8119 2.88646 4.71439 2.78245C4.51937 2.58093 4.31461 2.37291 4.10334 2.1779C3.78806 1.86587 3.41102 1.7001 3.01449 1.7001C2.61795 1.7001 2.23442 1.86587 1.90939 2.1779C1.90614 2.18115 1.90614 2.18115 1.90289 2.1844L0.797789 3.29925C0.381752 3.71528 0.144481 4.22233 0.092476 4.81063C0.014469 5.75972 0.293994 6.6438 0.508513 7.22235C1.03506 8.64273 1.82163 9.9591 2.99499 11.3697C4.41861 13.0696 6.13152 14.412 8.08819 15.3578C8.83576 15.7121 9.8336 16.1314 10.9485 16.2029C11.0167 16.2062 11.0882 16.2094 11.1532 16.2094C11.904 16.2094 12.5346 15.9396 13.0286 15.4033C13.0319 15.3968 13.0384 15.3936 13.0416 15.3871C13.2107 15.1823 13.4057 14.997 13.6104 14.7988C13.7502 14.6655 13.8932 14.5258 14.033 14.3795C14.3548 14.0447 14.5238 13.6547 14.5238 13.2549C14.5238 12.8519 14.3515 12.4651 14.0232 12.14L12.2388 10.3491ZM13.4024 13.7717C13.3992 13.7717 13.3992 13.7749 13.4024 13.7717C13.2757 13.9082 13.1456 14.0317 13.0059 14.1682C12.7946 14.3697 12.5801 14.581 12.3786 14.8183C12.0503 15.1693 11.6635 15.3351 11.1565 15.3351C11.1077 15.3351 11.0557 15.3351 11.007 15.3318C10.0416 15.2701 9.14454 14.893 8.47173 14.5713C6.63206 13.6807 5.01667 12.4163 3.6743 10.8139C2.56595 9.47805 1.82488 8.24294 1.33409 6.91682C1.03181 6.1075 0.9213 5.47694 0.970055 4.88214C1.00256 4.50186 1.14882 4.18658 1.4186 3.9168L2.52694 2.80845C2.68621 2.65894 2.85522 2.57768 3.02099 2.57768C3.22576 2.57768 3.39152 2.70119 3.49553 2.8052C3.49878 2.80845 3.50203 2.8117 3.50528 2.81495C3.70355 3.00022 3.89207 3.19199 4.09034 3.39676C4.19109 3.50077 4.2951 3.60477 4.39911 3.71203L5.28644 4.59936C5.63097 4.9439 5.63097 5.26242 5.28644 5.60695C5.19218 5.70121 5.10118 5.79547 5.00692 5.88648C4.73389 6.166 4.47387 6.42603 4.19109 6.67955C4.18459 6.68605 4.17809 6.6893 4.17484 6.6958C3.89532 6.97533 3.94732 7.24835 4.00583 7.43362C4.00908 7.44337 4.01233 7.45312 4.01558 7.46287C4.24635 8.02192 4.57138 8.54847 5.06542 9.17578L5.06867 9.17903C5.96575 10.2841 6.91159 11.1455 7.95493 11.8053C8.08819 11.8898 8.22471 11.958 8.35472 12.023C8.47173 12.0815 8.58224 12.1368 8.6765 12.1953C8.6895 12.2018 8.7025 12.2115 8.7155 12.218C8.82601 12.2733 8.93002 12.2993 9.03728 12.2993C9.30705 12.2993 9.47607 12.1303 9.53132 12.075L10.6429 10.9634C10.7534 10.8529 10.9289 10.7197 11.1337 10.7197C11.3352 10.7197 11.501 10.8464 11.6018 10.9569C11.605 10.9602 11.605 10.9602 11.6083 10.9634L13.3992 12.7543C13.734 13.0859 13.734 13.4272 13.4024 13.7717Z" fill="white"/>
<path d="M8.39048 4.47256C9.24205 4.61558 10.0156 5.01861 10.6332 5.63617C11.2507 6.25372 11.6505 7.02729 11.7968 7.87887C11.8325 8.09339 12.0178 8.2429 12.2291 8.2429C12.2551 8.2429 12.2778 8.23965 12.3038 8.2364C12.5443 8.1974 12.7036 7.96988 12.6646 7.72936C12.4891 6.69901 12.0016 5.75968 11.2572 5.01536C10.5129 4.27105 9.57358 3.7835 8.54324 3.60799C8.30272 3.56898 8.07845 3.72825 8.03619 3.96552C7.99394 4.20279 8.14995 4.43356 8.39048 4.47256Z" fill="white"/>
<path d="M15.4501 7.60263C15.1608 5.90597 14.3612 4.36208 13.1326 3.13347C11.904 1.90486 10.3601 1.10529 8.66348 0.816016C8.4262 0.773762 8.20193 0.936277 8.15968 1.17355C8.12068 1.41407 8.27994 1.63834 8.52046 1.68059C10.0351 1.93737 11.4165 2.65568 12.5151 3.75103C13.6137 4.84963 14.3287 6.231 14.5855 7.74564C14.6213 7.96016 14.8065 8.10967 15.0178 8.10967C15.0438 8.10967 15.0666 8.10642 15.0926 8.10317C15.3298 8.06742 15.4923 7.8399 15.4501 7.60263Z" fill="white"/>
</svg>
