<svg width="10" height="4" viewBox="0 0 10 4" fill="none" xmlns="http://www.w3.org/2000/svg">
<path d="M2.82989 2.95919C3.30819 2.68305 3.47206 2.07146 3.19592 1.59317C2.91978 1.11488 2.30819 0.951 1.82989 1.22714C1.3516 1.50328 1.18772 2.11488 1.46387 2.59317C1.74001 3.07146 2.3516 3.23534 2.82989 2.95919Z" fill="white"/>
<path d="M5.83185 2.95822C6.31014 2.68207 6.47401 2.07048 6.19787 1.59219C5.92173 1.1139 5.31014 0.950023 4.83185 1.22617C4.35355 1.50231 4.18968 2.1139 4.46582 2.59219C4.74196 3.07048 5.35355 3.23436 5.83185 2.95822Z" fill="white"/>
<path d="M8.83331 2.95724C9.3116 2.6811 9.47548 2.06951 9.19934 1.59121C8.92319 1.11292 8.3116 0.949047 7.83331 1.22519C7.35502 1.50133 7.19114 2.11292 7.46729 2.59121C7.74343 3.06951 8.35502 3.23338 8.83331 2.95724Z" fill="white"/>
</svg>
