<svg width="10" height="3" viewBox="0 0 10 3" fill="none" xmlns="http://www.w3.org/2000/svg">
<path d="M2.82989 2.45581C3.30819 2.17966 3.47206 1.56807 3.19592 1.08978C2.91978 0.611488 2.30819 0.447613 1.82989 0.723755C1.3516 0.999897 1.18772 1.61149 1.46387 2.08978C1.74001 2.56807 2.3516 2.73195 2.82989 2.45581Z" fill="white"/>
<path d="M5.83185 2.45483C6.31014 2.17869 6.47401 1.5671 6.19787 1.0888C5.92173 0.610511 5.31014 0.446636 4.83185 0.722778C4.35355 0.998921 4.18968 1.61051 4.46582 2.0888C4.74196 2.5671 5.35355 2.73097 5.83185 2.45483Z" fill="white"/>
<path d="M8.83331 2.45385C9.3116 2.17771 9.47548 1.56612 9.19934 1.08783C8.92319 0.609535 8.3116 0.445659 7.83331 0.721802C7.35502 0.997944 7.19114 1.60953 7.46729 2.08783C7.74343 2.56612 8.35502 2.72999 8.83331 2.45385Z" fill="white"/>
</svg>
