<svg width="14" height="18" viewBox="0 0 14 18" fill="none" xmlns="http://www.w3.org/2000/svg">
<path d="M12.6974 17.2645C12.3315 17.2645 12.035 16.968 12.035 16.6021C12.035 14.0089 9.92522 11.8991 7.33196 11.8991H6.33837C3.74511 11.8991 1.63534 14.0089 1.63534 16.6021C1.63534 16.968 1.33879 17.2645 0.972945 17.2645C0.607102 17.2645 0.310547 16.968 0.310547 16.6021C0.310547 13.2784 3.01462 10.5743 6.33837 10.5743H7.33196C10.6557 10.5743 13.3598 13.2784 13.3598 16.6021C13.3598 16.968 13.0632 17.2645 12.6974 17.2645ZM11.2401 4.77831C11.2401 2.3129 9.23434 0.307129 6.76893 0.307129C4.30351 0.307129 2.29774 2.3129 2.29774 4.77831C2.29774 7.24373 4.30351 9.2495 6.76893 9.2495C9.23434 9.2495 11.2401 7.24373 11.2401 4.77831ZM9.91532 4.77831C9.91532 6.51323 8.50384 7.9247 6.76893 7.9247C5.03401 7.9247 3.62254 6.51323 3.62254 4.77831C3.62254 3.04339 5.03401 1.63192 6.76893 1.63192C8.50384 1.63192 9.91532 3.04339 9.91532 4.77831Z" fill="white"/>
<path d="M6.80214 17.2645C6.68728 17.2645 6.57245 17.2347 6.46971 17.175L3.787 15.6184C3.6327 15.5289 3.52105 15.3809 3.47726 15.208C3.43351 15.035 3.46137 14.8518 3.5545 14.6996L4.5481 13.0767C4.7391 12.7647 5.1469 12.6667 5.45889 12.8577C5.77088 13.0487 5.86895 13.4565 5.67792 13.7685L5.03847 14.8129L6.80611 15.8386L8.61939 14.8118L7.96458 13.7768C7.769 13.4676 7.86105 13.0584 8.17022 12.8629C8.47933 12.6673 8.88856 12.7594 9.08413 13.0685L10.1108 14.6914C10.2078 14.8446 10.2377 15.0308 10.1936 15.2066C10.1495 15.3825 10.0352 15.5326 9.87745 15.6219L7.1285 17.1785C7.02725 17.2359 6.91464 17.2645 6.80214 17.2645Z" fill="#F80D38"/>
</svg>
