<svg width="10" height="4" viewBox="0 0 10 4" fill="none" xmlns="http://www.w3.org/2000/svg">
<path d="M2.39337 2.77401C2.87166 2.49787 3.03554 1.88628 2.75939 1.40799C2.48325 0.929694 1.87166 0.765819 1.39337 1.04196C0.915076 1.3181 0.751201 1.92969 1.02734 2.40799C1.30349 2.88628 1.91508 3.05015 2.39337 2.77401Z" fill="white"/>
<path d="M5.39532 2.77304C5.87361 2.49689 6.03749 1.8853 5.76135 1.40701C5.48521 0.928718 4.87361 0.764843 4.39532 1.04099C3.91703 1.31713 3.75315 1.92872 4.0293 2.40701C4.30544 2.8853 4.91703 3.04918 5.39532 2.77304Z" fill="white"/>
<path d="M8.39679 2.77206C8.87508 2.49592 9.03895 1.88433 8.76281 1.40603C8.48667 0.927741 7.87508 0.763866 7.39679 1.04001C6.91849 1.31615 6.75462 1.92774 7.03076 2.40603C7.3069 2.88433 7.91849 3.0482 8.39679 2.77206Z" fill="white"/>
</svg>
