<svg width="10" height="4" viewBox="0 0 10 4" fill="none" xmlns="http://www.w3.org/2000/svg">
<path d="M2.82989 2.65783C3.30819 2.38169 3.47206 1.7701 3.19592 1.29181C2.91978 0.813514 2.30819 0.649639 1.82989 0.925781C1.3516 1.20192 1.18772 1.81351 1.46387 2.29181C1.74001 2.7701 2.3516 2.93397 2.82989 2.65783Z" fill="white"/>
<path d="M5.83185 2.65686C6.31014 2.38071 6.47401 1.76912 6.19787 1.29083C5.92173 0.812537 5.31014 0.648662 4.83185 0.924805C4.35355 1.20095 4.18968 1.81254 4.46582 2.29083C4.74196 2.76912 5.35355 2.933 5.83185 2.65686Z" fill="white"/>
<path d="M8.83331 2.65588C9.3116 2.37974 9.47548 1.76815 9.19934 1.28985C8.92319 0.811561 8.3116 0.647686 7.83331 0.923828C7.35502 1.19997 7.19114 1.81156 7.46729 2.28985C7.74343 2.76815 8.35502 2.93202 8.83331 2.65588Z" fill="white"/>
</svg>
