<svg width="19" height="20" viewBox="0 0 19 20" fill="none" xmlns="http://www.w3.org/2000/svg">
<path d="M6.7168 19.9617H4.45312C1.99767 19.9617 0 17.964 0 15.5085V9.42261C0 6.96715 1.99767 4.96948 4.45312 4.96948H14.5469C17.0023 4.96948 19 6.96715 19 9.42261V11.6492C19 12.0591 18.6677 12.3914 18.2578 12.3914C17.8479 12.3914 17.5156 12.0591 17.5156 11.6492V9.42261C17.5156 7.78564 16.1838 6.45386 14.5469 6.45386H4.45312C2.81616 6.45386 1.48438 7.78564 1.48438 9.42261V15.5085C1.48438 17.1455 2.81616 18.4773 4.45312 18.4773H6.7168C7.12671 18.4773 7.45898 18.8096 7.45898 19.2195C7.45898 19.6294 7.12671 19.9617 6.7168 19.9617ZM19 17.698V15.7377C19 14.4859 17.9816 13.4675 16.7298 13.4675H14.7695C14.3596 13.4675 14.0273 13.7998 14.0273 14.2097C14.0273 14.6196 14.3596 14.9519 14.7695 14.9519H16.7298C17.1631 14.9519 17.5156 15.3044 17.5156 15.7377V17.698C17.5156 18.1079 17.8479 18.4402 18.2578 18.4402C18.6677 18.4402 19 18.1079 19 17.698ZM16.4192 17.2454C16.7023 16.9489 16.6915 16.4791 16.395 16.196C16.0986 15.913 15.6288 15.9238 15.3457 16.2202C13.9759 17.6546 12.0528 18.4773 10.0694 18.4773H9.72266C9.31275 18.4773 8.98047 18.8096 8.98047 19.2195C8.98047 19.6294 9.31275 19.9617 9.72266 19.9617H10.0694C12.4564 19.9617 14.7708 18.9716 16.4192 17.2454V17.2454ZM4.86133 8.45776C4.34896 8.45776 3.93359 8.87313 3.93359 9.3855C3.93359 9.89787 4.34896 10.3132 4.86133 10.3132C5.3737 10.3132 5.78906 9.89787 5.78906 9.3855C5.78906 8.87313 5.3737 8.45776 4.86133 8.45776ZM8.05273 8.45776C7.54037 8.45776 7.125 8.87313 7.125 9.3855C7.125 9.89787 7.54037 10.3132 8.05273 10.3132C8.5651 10.3132 8.98047 9.89787 8.98047 9.3855C8.98047 8.87313 8.5651 8.45776 8.05273 8.45776ZM11.2441 8.45776C10.7318 8.45776 10.3164 8.87313 10.3164 9.3855C10.3164 9.89787 10.7318 10.3132 11.2441 10.3132C11.7565 10.3132 12.1719 9.89787 12.1719 9.3855C12.1719 8.87313 11.7565 8.45776 11.2441 8.45776ZM4.86133 11.6492C4.34896 11.6492 3.93359 12.0645 3.93359 12.5769C3.93359 13.0893 4.34896 13.5046 4.86133 13.5046C5.3737 13.5046 5.78906 13.0893 5.78906 12.5769C5.78906 12.0645 5.3737 11.6492 4.86133 11.6492ZM4.86133 14.8406C4.34896 14.8406 3.93359 15.2559 3.93359 15.7683C3.93359 16.2807 4.34896 16.696 4.86133 16.696C5.3737 16.696 5.78906 16.2807 5.78906 15.7683C5.78906 15.2559 5.3737 14.8406 4.86133 14.8406ZM8.05273 11.6492C7.54037 11.6492 7.125 12.0645 7.125 12.5769C7.125 13.0893 7.54037 13.5046 8.05273 13.5046C8.5651 13.5046 8.98047 13.0893 8.98047 12.5769C8.98047 12.0645 8.5651 11.6492 8.05273 11.6492ZM8.05273 14.8406C7.54037 14.8406 7.125 15.2559 7.125 15.7683C7.125 16.2807 7.54037 16.696 8.05273 16.696C8.5651 16.696 8.98047 16.2807 8.98047 15.7683C8.98047 15.2559 8.5651 14.8406 8.05273 14.8406ZM11.2441 11.6492C10.7318 11.6492 10.3164 12.0645 10.3164 12.5769C10.3164 13.0893 10.7318 13.5046 11.2441 13.5046C11.7565 13.5046 12.1719 13.0893 12.1719 12.5769C12.1719 12.0645 11.7565 11.6492 11.2441 11.6492Z" fill="white"/>
<path d="M6.75391 3.93042C6.344 3.93042 6.01172 3.59814 6.01172 3.18823C6.01172 2.77899 5.67877 2.44604 5.26953 2.44604C4.86029 2.44604 4.52734 2.77899 4.52734 3.18823C4.52734 3.59814 4.19507 3.93042 3.78516 3.93042C3.37525 3.93042 3.04297 3.59814 3.04297 3.18823C3.04297 1.96051 4.0418 0.96167 5.26953 0.96167C6.49726 0.96167 7.49609 1.96051 7.49609 3.18823C7.49609 3.59814 7.16382 3.93042 6.75391 3.93042ZM16.0312 3.18823C16.0312 1.96051 15.0324 0.96167 13.8047 0.96167C12.577 0.96167 11.5781 1.96051 11.5781 3.18823C11.5781 3.59814 11.9104 3.93042 12.3203 3.93042C12.7302 3.93042 13.0625 3.59814 13.0625 3.18823C13.0625 2.77899 13.3954 2.44604 13.8047 2.44604C14.2139 2.44604 14.5469 2.77899 14.5469 3.18823C14.5469 3.59814 14.8792 3.93042 15.2891 3.93042C15.699 3.93042 16.0312 3.59814 16.0312 3.18823ZM14.4355 8.45776C13.9232 8.45776 13.5078 8.87313 13.5078 9.3855C13.5078 9.89787 13.9232 10.3132 14.4355 10.3132C14.9479 10.3132 15.3633 9.89787 15.3633 9.3855C15.3633 8.87313 14.9479 8.45776 14.4355 8.45776Z" fill="#F80D38"/>
</svg>
