<svg width="15" height="15" viewBox="0 0 15 15" fill="none" xmlns="http://www.w3.org/2000/svg">
<path d="M4.07227 8.58398C4.07227 8.9076 4.33459 9.16992 4.6582 9.16992H10.3125C10.6361 9.16992 10.8984 8.9076 10.8984 8.58398C10.8984 8.26037 10.6361 7.99805 10.3125 7.99805H4.6582C4.33459 7.99805 4.07227 8.26037 4.07227 8.58398Z" fill="#100DB1"/>
<path d="M13.4449 8.68348L13.2512 7.30146C13.2062 6.98101 12.9101 6.75753 12.5896 6.80253C12.2691 6.84744 12.0457 7.14366 12.0906 7.46414L12.3535 9.33914C12.394 9.62848 12.6415 9.84375 12.9337 9.84375H13.2422C13.5653 9.84375 13.8281 10.1066 13.8281 10.4297C13.8281 10.7528 13.5653 11.0156 13.2422 11.0156H1.75781C1.43473 11.0156 1.17188 10.7528 1.17188 10.4297C1.17188 10.1066 1.43473 9.84375 1.75781 9.84375H2.06625C2.35843 9.84375 2.60596 9.62851 2.6465 9.33914L3.27732 4.83894C3.44728 3.62663 4.11568 2.55249 5.11119 1.89199C5.82129 1.4209 6.65039 1.17188 7.55859 1.17188C8.12892 1.18365 8.69153 1.29598 9.16857 1.50393C9.46523 1.63321 9.81053 1.49757 9.93984 1.20094C10.0692 0.904307 9.93349 0.558984 9.63686 0.429668C9.01887 0.160313 8.34961 0 7.55859 0C6.4747 0 5.36604 0.316582 4.46335 0.915498C3.18855 1.7613 2.33329 3.13204 2.11685 4.67628L1.55511 8.68351C0.681006 8.78435 0 9.52898 0 10.4297C0 11.3989 0.788555 12.1875 1.75781 12.1875H13.2422C14.2114 12.1875 15 11.3989 15 10.4297C15 9.52898 14.319 8.78435 13.4449 8.68348V8.68348Z" fill="#100DB1"/>
<path d="M7.52945 15C6.63657 15 5.88607 14.3364 5.78376 13.4563C5.74638 13.1349 5.97665 12.844 6.2981 12.8067C6.61954 12.7691 6.9104 12.9996 6.94779 13.321C6.98139 13.6101 7.23147 13.8281 7.52945 13.8281C7.82743 13.8281 8.0775 13.6101 8.11111 13.321C8.14849 12.9996 8.43955 12.7693 8.76079 12.8067C9.08224 12.844 9.31251 13.1349 9.27513 13.4563C9.17283 14.3364 8.42233 15 7.52945 15V15ZM14.4142 2.34375H12.6564V0.585938C12.6564 0.262324 12.3941 0 12.0705 0C11.7468 0 11.4845 0.262324 11.4845 0.585938V2.34375H9.72671C9.4031 2.34375 9.14078 2.60607 9.14078 2.92969C9.14078 3.2533 9.4031 3.51562 9.72671 3.51562H11.4845V5.27344C11.4845 5.59705 11.7468 5.85938 12.0705 5.85938C12.3941 5.85938 12.6564 5.59705 12.6564 5.27344V3.51562H14.4142C14.7378 3.51562 15.0002 3.2533 15.0002 2.92969C15.0002 2.60607 14.7378 2.34375 14.4142 2.34375Z" fill="#F80D38"/>
</svg>
