<svg width="9" height="4" viewBox="0 0 9 4" fill="none" xmlns="http://www.w3.org/2000/svg">
<path d="M2.03253 2.67065C2.51082 2.39451 2.6747 1.78292 2.39855 1.30462C2.12241 0.826331 1.51082 0.662456 1.03253 0.938599C0.554237 1.21474 0.390362 1.82633 0.666504 2.30462C0.942646 2.78292 1.55424 2.94679 2.03253 2.67065Z" fill="white"/>
<path d="M5.03399 2.66967C5.51229 2.39353 5.67616 1.78194 5.40002 1.30365C5.12388 0.825355 4.51229 0.66148 4.03399 0.937622C3.5557 1.21376 3.39183 1.82535 3.66797 2.30365C3.94411 2.78194 4.5557 2.94582 5.03399 2.66967Z" fill="white"/>
<path d="M8.03595 2.6687C8.51424 2.39255 8.67812 1.78096 8.40197 1.30267C8.12583 0.824378 7.51424 0.660503 7.03595 0.936646C6.55765 1.21279 6.39378 1.82438 6.66992 2.30267C6.94606 2.78096 7.55765 2.94484 8.03595 2.6687Z" fill="white"/>
</svg>
