<svg width="16" height="15" viewBox="0 0 16 15" fill="none" xmlns="http://www.w3.org/2000/svg">
<path d="M6.51661 11.5832C3.10803 11.5832 0.334961 8.99702 0.334961 5.81811C0.334961 2.6392 3.10803 0.0529785 6.51661 0.0529785C9.92519 0.0529785 12.6983 2.6392 12.6983 5.81811C12.6983 8.99702 9.92516 11.5832 6.51661 11.5832V11.5832ZM6.51661 1.14589C3.7542 1.14589 1.50684 3.24183 1.50684 5.81811C1.50684 8.39438 3.7542 10.4903 6.51661 10.4903C9.27902 10.4903 11.5264 8.39438 11.5264 5.81811C11.5264 3.24183 9.27899 1.14589 6.51661 1.14589V1.14589Z" fill="white"/>
<path d="M15.1635 13.8929C15.0491 13.9996 14.8992 14.053 14.7492 14.053C14.5992 14.053 14.4493 13.9996 14.3349 13.8929L11.7128 11.4475C11.484 11.2341 11.484 10.8881 11.7128 10.6747C11.9417 10.4613 12.3127 10.4613 12.5415 10.6747L15.1635 13.1201C15.3923 13.3335 15.3923 13.6795 15.1635 13.8929V13.8929ZM9.30849 4.87123L8.91814 5.08965C8.99463 5.31255 9.03632 5.54985 9.03632 5.79611C9.03632 6.04237 8.99463 6.27967 8.91814 6.50257L9.30846 6.72099C9.58596 6.87627 9.67593 7.21193 9.50944 7.4707C9.39957 7.64147 9.20548 7.73609 9.00644 7.73609C8.90384 7.73609 8.79993 7.71095 8.70553 7.65814L8.30797 7.43568C7.98931 7.73352 7.58448 7.95079 7.13196 8.05298V8.52837C7.13196 8.83018 6.86964 9.07483 6.54603 9.07483C6.22241 9.07483 5.96009 8.83018 5.96009 8.52837V8.05298C5.49726 7.94845 5.08467 7.72317 4.76278 7.41483L4.32796 7.65814C4.23359 7.71095 4.12965 7.73609 4.02705 7.73609C3.82798 7.73609 3.63391 7.64147 3.52405 7.4707C3.35756 7.21193 3.44756 6.87624 3.72503 6.72099L4.16457 6.47503C4.09399 6.26016 4.05576 6.03224 4.05576 5.79611C4.05576 5.55999 4.09399 5.33206 4.16457 5.11719L3.725 4.87123C3.4475 4.71596 3.35753 4.38029 3.52402 4.12149C3.69054 3.86269 4.05043 3.77878 4.32793 3.93406L4.76275 4.17737C5.08464 3.869 5.49723 3.64375 5.96006 3.53921V3.06382C5.96006 2.76201 6.22238 2.51736 6.546 2.51736C6.86961 2.51736 7.13194 2.76201 7.13194 3.06382V3.53921C7.58446 3.6414 7.98928 3.85867 8.30794 4.15652L8.70547 3.93406C8.983 3.77878 9.34288 3.86272 9.50938 4.12149C9.67596 4.38029 9.58596 4.71596 9.30849 4.87123ZM7.86445 5.79611C7.86445 5.11815 7.27303 4.56658 6.54609 4.56658C5.81914 4.56658 5.22772 5.11815 5.22772 5.79611C5.22772 6.47407 5.81914 7.02564 6.54609 7.02564C7.27303 7.02564 7.86445 6.47407 7.86445 5.79611Z" fill="#F80D38"/>
</svg>
