<svg width="13" height="13" viewBox="0 0 13 13" fill="none" xmlns="http://www.w3.org/2000/svg">
<path d="M9.55225 12.6029H3.17725C1.62643 12.6029 0.364746 11.3412 0.364746 9.79041V5.82947C0.364746 4.27866 1.62643 3.01697 3.17725 3.01697H5.05225C5.31114 3.01697 5.521 3.22683 5.521 3.48572C5.521 3.74461 5.31114 3.95447 5.05225 3.95447H3.17725C2.14337 3.95447 1.30225 4.79559 1.30225 5.82947V9.79041C1.30225 10.8243 2.14337 11.6654 3.17725 11.6654H9.55225C10.5861 11.6654 11.4272 10.8243 11.4272 9.79041V7.09509C11.4272 6.8362 11.6371 6.62634 11.896 6.62634C12.1549 6.62634 12.3647 6.8362 12.3647 7.09509V9.79041C12.3647 11.3412 11.1031 12.6029 9.55225 12.6029ZM12.3647 3.55603C12.3647 1.92766 11.04 0.602905 9.41162 0.602905C7.78325 0.602905 6.4585 1.92766 6.4585 3.55603C6.4585 5.1844 7.78325 6.50916 9.41162 6.50916C11.04 6.50916 12.3647 5.1844 12.3647 3.55603ZM11.4272 3.55603C11.4272 4.66744 10.523 5.57166 9.41162 5.57166C8.30021 5.57166 7.396 4.66744 7.396 3.55603C7.396 2.44462 8.30021 1.54041 9.41162 1.54041C10.523 1.54041 11.4272 2.44462 11.4272 3.55603Z" fill="white"/>
<path d="M6.36461 9.31985C5.76285 9.31985 5.16118 9.12837 4.65913 8.74544L2.42479 7.04634C2.21872 6.88964 2.17869 6.59555 2.3354 6.38948C2.49212 6.1834 2.78619 6.14337 2.99225 6.30009L5.22714 7.99959C5.89717 8.51065 6.83237 8.51062 7.50186 8.00001L8.28311 7.40245C8.48875 7.24519 8.78296 7.28437 8.94022 7.48999C9.09751 7.69561 9.05833 7.98982 8.85269 8.14709L8.07093 8.74502C7.56847 9.12827 6.9665 9.31985 6.36461 9.31985ZM9.8804 4.28259V2.82947C9.8804 2.57058 9.67054 2.36072 9.41165 2.36072H8.9429C8.68401 2.36072 8.47415 2.57058 8.47415 2.82947C8.47415 3.08836 8.68401 3.29822 8.9429 3.29822V4.28259C8.9429 4.54148 9.15276 4.75134 9.41165 4.75134C9.67054 4.75134 9.8804 4.54148 9.8804 4.28259Z" fill="#F80D38"/>
</svg>
