<svg width="18" height="15" viewBox="0 0 18 15" fill="none" xmlns="http://www.w3.org/2000/svg">
<path d="M13.3506 12.6608H4.31863C2.12205 12.6608 0.334961 11.104 0.334961 9.19034V4.44593C0.334961 2.53198 2.12235 0.974854 4.31933 0.974854H10.8935C11.2603 0.974854 11.5576 1.23385 11.5576 1.55337C11.5576 1.87288 11.2603 2.13188 10.8935 2.13188H4.31933C2.85468 2.13188 1.66308 3.16996 1.66308 4.44593V9.19034C1.66308 10.466 2.85438 11.5038 4.31863 11.5038H13.3506C14.8152 11.5038 16.0068 10.4657 16.0068 9.18973V6.58642C16.0068 6.26691 16.3041 6.00791 16.6709 6.00791C17.0376 6.00791 17.3349 6.26691 17.3349 6.58642V9.18973C17.3349 11.1037 15.5475 12.6608 13.3506 12.6608ZM12.6865 14.3963C12.6865 14.0768 12.3892 13.8178 12.0224 13.8178H5.64745C5.28069 13.8178 4.98339 14.0768 4.98339 14.3963C4.98339 14.7159 5.28069 14.9749 5.64745 14.9749H12.0224C12.3892 14.9749 12.6865 14.7159 12.6865 14.3963Z" fill="white"/>
<path d="M16.6708 4.85089C16.304 4.85089 16.0067 4.59189 16.0067 4.27237V2.74444C16.0067 2.40667 15.6913 2.13188 15.3036 2.13188H13.5497C13.1829 2.13188 12.8856 1.87288 12.8856 1.55337C12.8856 1.23385 13.1829 0.974854 13.5497 0.974854H15.3036C16.4237 0.974854 17.3349 1.76866 17.3349 2.74444V4.27237C17.3349 4.59189 17.0376 4.85089 16.6708 4.85089ZM15.0258 3.91957C15.279 3.68851 15.2693 3.32231 15.0041 3.10167C14.7389 2.88102 14.3185 2.88944 14.0652 3.1205C12.4536 4.59076 10.3131 5.40047 8.038 5.40047H7.64551C7.27875 5.40047 6.98145 5.65947 6.98145 5.97899C6.98145 6.2985 7.27875 6.5575 7.64551 6.5575H8.038C10.6794 6.5575 13.1611 5.62065 15.0258 3.91957V3.91957Z" fill="#F80D38"/>
</svg>
