<svg width="16" height="15" viewBox="0 0 16 15" fill="none" xmlns="http://www.w3.org/2000/svg">
<path d="M12.3193 14.9982H4.35059C2.41207 14.9982 0.834961 13.5262 0.834961 11.7169V7.09583C0.834961 5.28654 2.41207 3.81458 4.35059 3.81458H6.69434C7.01795 3.81458 7.28027 4.05941 7.28027 4.36145C7.28027 4.66349 7.01795 4.90833 6.69434 4.90833H4.35059C3.05824 4.90833 2.00684 5.88964 2.00684 7.09583V11.7169C2.00684 12.9231 3.05824 13.9044 4.35059 13.9044H12.3193C13.6117 13.9044 14.6631 12.9231 14.6631 11.7169V8.57239C14.6631 8.27035 14.9254 8.02551 15.249 8.02551C15.5726 8.02551 15.835 8.27035 15.835 8.57239V11.7169C15.835 13.5262 14.2579 14.9982 12.3193 14.9982ZM15.835 4.44348C15.835 2.54372 14.179 0.998169 12.1436 0.998169C10.1081 0.998169 8.45215 2.54372 8.45215 4.44348C8.45215 6.34324 10.1081 7.88879 12.1436 7.88879C14.179 7.88879 15.835 6.34324 15.835 4.44348ZM14.6631 4.44348C14.6631 5.74012 13.5328 6.79504 12.1436 6.79504C10.7543 6.79504 9.62402 5.74012 9.62402 4.44348C9.62402 3.14684 10.7543 2.09192 12.1436 2.09192C13.5328 2.09192 14.6631 3.14684 14.6631 4.44348Z" fill="white"/>
<path d="M8.33479 11.1679C7.58259 11.1679 6.83051 10.9445 6.20294 10.4978L3.41001 8.51551C3.15243 8.33269 3.10239 7.98958 3.29827 7.74918C3.49418 7.50874 3.86177 7.46204 4.11935 7.64489L6.91295 9.62764C7.75049 10.2239 8.91949 10.2238 9.75636 9.62813L10.7329 8.93097C10.99 8.7475 11.3577 8.79322 11.5543 9.0331C11.7509 9.27299 11.7019 9.61624 11.4449 9.79971L10.4677 10.4973C9.83962 10.9444 9.08716 11.1679 8.33479 11.1679ZM12.7295 5.29114V3.59583C12.7295 3.29379 12.4672 3.04895 12.1436 3.04895H11.5576C11.234 3.04895 10.9717 3.29379 10.9717 3.59583C10.9717 3.89786 11.234 4.1427 11.5576 4.1427V5.29114C11.5576 5.59318 11.82 5.83801 12.1436 5.83801C12.4672 5.83801 12.7295 5.59318 12.7295 5.29114Z" fill="#F80D38"/>
</svg>
