<svg width="127" height="47" viewBox="0 0 127 47" fill="none" xmlns="http://www.w3.org/2000/svg">
<path d="M44.771 29.6817C44.6133 29.6817 44.4793 29.6344 44.369 29.5398C44.2744 29.4294 44.2271 29.2954 44.2271 29.1378V13.6703C44.2271 13.5127 44.2744 13.3865 44.369 13.2919C44.4793 13.1816 44.6133 13.1264 44.771 13.1264H46.0245C46.1822 13.1264 46.3083 13.1816 46.4029 13.2919C46.5133 13.3865 46.5684 13.5127 46.5684 13.6703V29.1378C46.5684 29.2954 46.5133 29.4294 46.4029 29.5398C46.3083 29.6344 46.1822 29.6817 46.0245 29.6817H44.771Z" fill="white"/>
<path d="M53.6503 29.6817C53.4453 29.6817 53.2877 29.6344 53.1773 29.5398C53.0669 29.4452 52.9723 29.2954 52.8935 29.0905L49.5351 18.1166L49.4878 17.8801C49.4878 17.7382 49.5351 17.62 49.6297 17.5254C49.7401 17.4308 49.8583 17.3835 49.9845 17.3835H51.0251C51.1828 17.3835 51.3089 17.4308 51.4035 17.5254C51.5139 17.6042 51.5848 17.6909 51.6164 17.7855L54.2416 26.7018L57.056 17.8801C57.0875 17.754 57.1585 17.6436 57.2688 17.549C57.3792 17.4386 57.529 17.3835 57.7182 17.3835H58.5223C58.7115 17.3835 58.8613 17.4386 58.9717 17.549C59.082 17.6436 59.153 17.754 59.1845 17.8801L61.9989 26.7018L64.6241 17.7855C64.6399 17.7067 64.6951 17.62 64.7897 17.5254C64.9 17.4308 65.0341 17.3835 65.1917 17.3835H66.256C66.3821 17.3835 66.4925 17.4308 66.5871 17.5254C66.6817 17.62 66.729 17.7382 66.729 17.8801L66.6817 18.1166L63.347 29.0905C63.2682 29.2954 63.1736 29.4452 63.0632 29.5398C62.9528 29.6344 62.7873 29.6817 62.5665 29.6817H61.6442C61.2185 29.6817 60.9583 29.4846 60.8637 29.0905L58.1202 20.6236L55.3768 29.0905C55.2506 29.4846 54.9826 29.6817 54.5727 29.6817H53.6503Z" fill="white"/>
<path d="M74.0627 29.9182C72.3283 29.9182 70.9803 29.4294 70.0185 28.4519C69.0724 27.4743 68.5679 26.1736 68.5048 24.5496L68.4812 23.5326L68.5048 22.5156C68.5679 20.9074 69.0803 19.6145 70.0421 18.6369C71.0039 17.6436 72.3441 17.147 74.0627 17.147C75.7813 17.147 77.1215 17.6436 78.0833 18.6369C79.0451 19.6145 79.5575 20.9074 79.6206 22.5156C79.6363 22.6891 79.6442 23.028 79.6442 23.5326C79.6442 24.0371 79.6363 24.3761 79.6206 24.5496C79.5575 26.1736 79.0451 27.4743 78.0833 28.4519C77.1373 29.4294 75.7971 29.9182 74.0627 29.9182ZM74.0627 28.0971C75.056 28.0971 75.8365 27.7818 76.4041 27.1511C76.9875 26.5204 77.3028 25.6138 77.3501 24.4313C77.3659 24.2736 77.3738 23.9741 77.3738 23.5326C77.3738 23.0911 77.3659 22.7915 77.3501 22.6339C77.3028 21.4513 76.9875 20.5447 76.4041 19.9141C75.8365 19.2834 75.056 18.968 74.0627 18.968C73.0694 18.968 72.281 19.2834 71.6977 19.9141C71.1143 20.5447 70.8068 21.4513 70.7753 22.6339L70.7516 23.5326L70.7753 24.4313C70.8068 25.6138 71.1143 26.5204 71.6977 27.1511C72.281 27.7818 73.0694 28.0971 74.0627 28.0971Z" fill="white"/>
<path d="M86.8628 29.9182C85.7591 29.9182 84.8289 29.7448 84.072 29.3979C83.331 29.0353 82.7713 28.6253 82.3929 28.1681C82.0302 27.7108 81.8489 27.3324 81.8489 27.0329C81.8489 26.8752 81.9041 26.7569 82.0144 26.6781C82.1406 26.5835 82.2667 26.5362 82.3929 26.5362H83.4571C83.6148 26.5362 83.7567 26.615 83.8828 26.7727C84.2612 27.2142 84.6712 27.5611 85.1127 27.8133C85.5541 28.0656 86.1454 28.1917 86.8864 28.1917C87.7063 28.1917 88.3685 28.0341 88.8731 27.7187C89.3934 27.3876 89.6536 26.9383 89.6536 26.3707C89.6536 25.9922 89.5432 25.6848 89.3224 25.4483C89.1175 25.196 88.7548 24.9832 88.2345 24.8097C87.73 24.6205 86.9732 24.4155 85.9641 24.1948C84.5923 23.8952 83.6148 23.4616 83.0314 22.894C82.4638 22.3264 82.18 21.5933 82.18 20.6945C82.18 20.0954 82.3534 19.5278 82.7003 18.9917C83.0629 18.4399 83.5833 17.9984 84.2612 17.6673C84.955 17.3204 85.7828 17.147 86.7445 17.147C87.7536 17.147 88.6129 17.3125 89.3224 17.6436C90.032 17.9747 90.5602 18.3689 90.907 18.8261C91.2697 19.2676 91.451 19.6381 91.451 19.9377C91.451 20.0796 91.3958 20.1979 91.2854 20.2925C91.1908 20.3871 91.0726 20.4344 90.9307 20.4344H89.9374C89.7482 20.4344 89.5905 20.3555 89.4643 20.1979C89.2121 19.8983 88.9913 19.6697 88.8021 19.512C88.6287 19.3386 88.3685 19.1888 88.0217 19.0626C87.6906 18.9365 87.2649 18.8734 86.7445 18.8734C85.9877 18.8734 85.4043 19.039 84.9944 19.3701C84.5845 19.6854 84.3795 20.1033 84.3795 20.6236C84.3795 20.9547 84.4662 21.2385 84.6396 21.475C84.8131 21.6957 85.1442 21.9007 85.633 22.0899C86.1375 22.2791 86.8628 22.4762 87.8088 22.6812C89.3067 22.9965 90.3631 23.4538 90.978 24.0529C91.6087 24.6363 91.924 25.3852 91.924 26.2997C91.924 26.9777 91.7269 27.5926 91.3327 28.1444C90.9386 28.6963 90.3552 29.1299 89.5826 29.4452C88.8258 29.7606 87.9192 29.9182 86.8628 29.9182Z" fill="white"/>
<path d="M98.0912 29.9182C97.3187 29.9182 96.6013 29.7606 95.939 29.4452C95.2768 29.1299 94.7486 28.7042 94.3545 28.1681C93.976 27.6162 93.7868 27.0092 93.7868 26.347C93.7868 25.3064 94.2126 24.455 95.064 23.7927C95.9312 23.1148 97.0979 22.6733 98.5642 22.4683L102.088 21.9717V21.2858C102.088 19.6776 101.166 18.8734 99.3211 18.8734C98.6273 18.8734 98.0597 19.0232 97.6182 19.3228C97.1767 19.6066 96.8456 19.9456 96.6249 20.3398C96.5776 20.4817 96.5145 20.5842 96.4357 20.6472C96.3726 20.7103 96.278 20.7418 96.1519 20.7418H95.1349C94.993 20.7418 94.8669 20.6945 94.7565 20.5999C94.6619 20.4896 94.6146 20.3634 94.6146 20.2215C94.6304 19.8431 94.8038 19.4174 95.1349 18.9444C95.4818 18.4556 96.01 18.0378 96.7195 17.6909C97.429 17.3283 98.3041 17.147 99.3447 17.147C101.111 17.147 102.38 17.5648 103.152 18.4004C103.925 19.2203 104.311 20.2452 104.311 21.475V29.1378C104.311 29.2954 104.256 29.4294 104.146 29.5398C104.051 29.6344 103.925 29.6817 103.767 29.6817H102.679C102.522 29.6817 102.388 29.6344 102.277 29.5398C102.183 29.4294 102.135 29.2954 102.135 29.1378V28.1208C101.789 28.6253 101.284 29.051 100.622 29.3979C99.9596 29.7448 99.1161 29.9182 98.0912 29.9182ZM98.5879 28.1444C99.6128 28.1444 100.448 27.8133 101.095 27.1511C101.757 26.4731 102.088 25.5035 102.088 24.2421V23.5799L99.3447 23.982C98.2253 24.1396 97.3817 24.4077 96.8141 24.7861C96.2465 25.1487 95.9627 25.6138 95.9627 26.1814C95.9627 26.8121 96.2228 27.3009 96.7432 27.6478C97.2635 27.9789 97.8784 28.1444 98.5879 28.1444Z" fill="white"/>
<path d="M108.255 29.6817C108.098 29.6817 107.964 29.6344 107.853 29.5398C107.759 29.4294 107.711 29.2954 107.711 29.1378V17.9274C107.711 17.7698 107.759 17.6436 107.853 17.549C107.964 17.4386 108.098 17.3835 108.255 17.3835H109.367C109.524 17.3835 109.651 17.4386 109.745 17.549C109.856 17.6436 109.911 17.7698 109.911 17.9274V18.968C110.368 18.3847 110.904 17.9353 111.519 17.62C112.15 17.3046 112.93 17.147 113.86 17.147C115.374 17.147 116.549 17.6357 117.384 18.6133C118.236 19.5751 118.661 20.8601 118.661 22.4683V29.1378C118.661 29.2954 118.606 29.4294 118.496 29.5398C118.401 29.6344 118.275 29.6817 118.117 29.6817H116.935C116.777 29.6817 116.643 29.6344 116.533 29.5398C116.438 29.4294 116.391 29.2954 116.391 29.1378V22.5866C116.391 21.4671 116.115 20.5999 115.563 19.985C115.027 19.3701 114.247 19.0626 113.222 19.0626C112.229 19.0626 111.44 19.378 110.857 20.0087C110.273 20.6236 109.982 21.4829 109.982 22.5866V29.1378C109.982 29.2954 109.927 29.4294 109.816 29.5398C109.722 29.6344 109.595 29.6817 109.438 29.6817H108.255Z" fill="white"/>
<path d="M120.297 15.6125C120.26 15.6125 120.226 15.5995 120.196 15.5736C120.17 15.5439 120.157 15.5105 120.157 15.4734V12.5908H119.167C119.13 12.5908 119.096 12.5778 119.067 12.5519C119.041 12.5222 119.028 12.4888 119.028 12.4517V11.8563C119.028 11.8154 119.041 11.7821 119.067 11.7561C119.096 11.7301 119.13 11.7171 119.167 11.7171H122.161C122.202 11.7171 122.235 11.7301 122.261 11.7561C122.287 11.7821 122.3 11.8154 122.3 11.8563V12.4517C122.3 12.4925 122.287 12.5259 122.261 12.5519C122.235 12.5778 122.202 12.5908 122.161 12.5908H121.17V15.4734C121.17 15.5105 121.157 15.5439 121.131 15.5736C121.105 15.5995 121.072 15.6125 121.031 15.6125H120.297Z" fill="white"/>
<path d="M122.945 15.6125C122.908 15.6125 122.874 15.5995 122.845 15.5736C122.819 15.5439 122.806 15.5105 122.806 15.4734V11.8563C122.806 11.8154 122.819 11.7821 122.845 11.7561C122.874 11.7301 122.908 11.7171 122.945 11.7171H123.546C123.635 11.7171 123.7 11.7579 123.741 11.8396L124.72 13.5925L125.699 11.8396C125.74 11.7579 125.805 11.7171 125.894 11.7171H126.49C126.53 11.7171 126.564 11.7301 126.59 11.7561C126.619 11.7821 126.634 11.8154 126.634 11.8563V15.4734C126.634 15.5142 126.619 15.5476 126.59 15.5736C126.564 15.5995 126.53 15.6125 126.49 15.6125H125.827C125.787 15.6125 125.751 15.5995 125.722 15.5736C125.696 15.5476 125.683 15.5142 125.683 15.4734V13.3866L125.059 14.5496C125.011 14.635 124.946 14.6776 124.865 14.6776H124.575C124.527 14.6776 124.488 14.6665 124.458 14.6442C124.429 14.622 124.403 14.5904 124.381 14.5496L123.752 13.3866V15.4734C123.752 15.5105 123.739 15.5439 123.713 15.5736C123.687 15.5995 123.653 15.6125 123.613 15.6125H122.945Z" fill="white"/>
<path d="M1.40869 7.96823C7.50922 7.96823 13.4533 5.9348 18.146 2.18062L18.6153 1.71127L19.0846 2.18062C23.7773 5.9348 29.7214 7.96823 35.822 7.96823C33.7884 14.2252 32.6935 18.9179 32.6935 22.0464C32.6935 25.1749 33.7884 26.7391 35.822 26.7391V31.4318C24.403 40.8173 18.6153 45.51 18.6153 45.51C18.6153 45.51 12.8276 40.8173 1.40869 31.4318V26.7391C3.4422 25.4877 4.53717 23.9235 4.53717 22.0464C4.53717 17.6665 3.4422 12.9738 1.40869 7.96823Z" fill="url(#paint0_linear_43_4640)"/>
<path fill-rule="evenodd" clip-rule="evenodd" d="M18.6152 0.587891C18.9132 0.587891 19.199 0.706274 19.4097 0.916994L19.8344 1.34182C24.3139 4.90692 29.9888 6.84485 35.8218 6.84485C36.1815 6.84485 36.5194 7.01702 36.7307 7.30797C36.9421 7.59892 37.0014 7.97349 36.8903 8.3155C34.857 14.5716 33.8168 19.1134 33.8168 22.0464C33.8168 23.5118 34.0789 24.423 34.4262 24.9374C34.7245 25.3793 35.1397 25.6157 35.8218 25.6157C36.4423 25.6157 36.9453 26.1187 36.9453 26.7391V31.4319C36.9453 31.7679 36.7948 32.0864 36.5352 32.2997C30.8247 36.9933 26.5221 40.5136 23.6469 42.8607C22.2092 44.0343 21.1284 44.9146 20.4069 45.5016C20.0462 45.7951 19.7753 46.0152 19.5945 46.1621L19.3239 46.3817L19.3228 46.3826L18.6152 45.51L17.9076 46.3826L17.9066 46.3817L17.636 46.1621C17.4552 46.0152 17.1842 45.7951 16.8235 45.5016C16.102 44.9146 15.0212 44.0343 13.5836 42.8607C10.7083 40.5136 6.40569 36.9933 0.695249 32.2997C0.435619 32.0864 0.285161 31.7679 0.285161 31.4319V26.7391C0.285161 26.349 0.487551 25.9868 0.8198 25.7824C2.65319 24.6541 3.41364 23.4 3.41364 22.0464C3.41364 17.8517 2.3642 13.3054 0.36777 8.3911C0.227063 8.04474 0.267868 7.65108 0.476624 7.34095C0.685381 7.03082 1.03474 6.84485 1.40858 6.84485C7.24162 6.84485 12.9165 4.90692 17.396 1.34181L17.8208 0.916994C18.0315 0.706274 18.3172 0.587891 18.6152 0.587891ZM18.6152 3.24181C14.1768 6.71221 8.70712 8.72204 3.03448 9.04539C4.73378 13.5938 5.66048 17.9315 5.66048 22.0464C5.66048 24.2495 4.45654 26.0094 2.532 27.3465V30.901C8.03679 35.4247 12.2003 38.8311 15.0044 41.1202C16.4411 42.293 17.5209 43.1725 18.2414 43.7587C18.3792 43.8707 18.5038 43.9721 18.6152 44.0627C18.7267 43.9721 18.8513 43.8707 18.989 43.7587C19.7095 43.1725 20.7893 42.293 22.226 41.1202C25.0301 38.8311 29.1936 35.4247 34.6984 30.901V27.7232C33.835 27.4962 33.1011 26.9903 32.5639 26.1945C31.8553 25.1447 31.5699 23.7095 31.5699 22.0464C31.5699 18.9802 32.5483 14.6207 34.2965 9.05094C28.588 8.74573 23.0798 6.73271 18.6152 3.24181ZM18.6152 45.51L17.9076 46.3826C18.32 46.717 18.9104 46.717 19.3228 46.3826L18.6152 45.51Z" fill="#09075F"/>
<path d="M15.9946 12.8207H21.2533V20.8668H15.9946V12.8207Z" fill="white"/>
<path d="M7.94873 26.1256L7.94873 20.8669L15.9949 20.8669L15.9949 26.1256L7.94873 26.1256Z" fill="#F80D38"/>
<path d="M29.2822 26.0764L29.2822 20.8177L21.2361 20.8177L21.2361 26.0764L29.2822 26.0764Z" fill="#F80D38"/>
<path d="M21.2534 34.4006L15.9947 34.4006L15.9948 26.1256L21.2534 26.1256L21.2534 34.4006Z" fill="white"/>
<defs>
<linearGradient id="paint0_linear_43_4640" x1="18.6153" y1="1.71127" x2="18.6153" y2="45.51" gradientUnits="userSpaceOnUse">
<stop stop-color="#100DB4"/>
<stop offset="1" stop-color="#070641"/>
</linearGradient>
</defs>
</svg>
