<svg width="307" height="163" viewBox="0 0 307 163" fill="none" xmlns="http://www.w3.org/2000/svg">
<path opacity="0.8" fill-rule="evenodd" clip-rule="evenodd" d="M12.0696 45.42C13.7236 45.42 15.0645 44.0791 15.0645 42.4251C15.0645 40.771 13.7236 39.4302 12.0696 39.4302C10.4156 39.4302 9.07471 40.771 9.07471 42.4251C9.07471 44.0791 10.4156 45.42 12.0696 45.42Z" fill="#763CEF"/>
<path opacity="0.8" fill-rule="evenodd" clip-rule="evenodd" d="M13.5672 52.1585C15.2212 52.1585 16.5621 50.8176 16.5621 49.1636C16.5621 47.5096 15.2212 46.1687 13.5672 46.1687C11.9131 46.1687 10.5723 47.5096 10.5723 49.1636C10.5723 50.8176 11.9131 52.1585 13.5672 52.1585Z" fill="#F80D38"/>
<path opacity="0.8" fill-rule="evenodd" clip-rule="evenodd" d="M28.5418 59.6457C30.1958 59.6457 31.5367 58.3049 31.5367 56.6508C31.5367 54.9968 30.1958 53.6559 28.5418 53.6559C26.8877 53.6559 25.5469 54.9968 25.5469 56.6508C25.5469 58.3049 26.8877 59.6457 28.5418 59.6457Z" fill="#F80D38"/>
<path opacity="0.8" fill-rule="evenodd" clip-rule="evenodd" d="M21.055 74.6202C22.709 74.6202 24.0499 73.2794 24.0499 71.6253C24.0499 69.9713 22.709 68.6304 21.055 68.6304C19.4009 68.6304 18.0601 69.9713 18.0601 71.6253C18.0601 73.2794 19.4009 74.6202 21.055 74.6202Z" fill="#F80D38"/>
<path opacity="0.8" fill-rule="evenodd" clip-rule="evenodd" d="M21.803 55.9021C23.457 55.9021 24.7979 54.5613 24.7979 52.9072C24.7979 51.2532 23.457 49.9123 21.803 49.9123C20.149 49.9123 18.8081 51.2532 18.8081 52.9072C18.8081 54.5613 20.149 55.9021 21.803 55.9021Z" fill="#F80D38"/>
<path opacity="0.8" fill-rule="evenodd" clip-rule="evenodd" d="M225.456 100.826C227.11 100.826 228.451 99.4847 228.451 97.8307C228.451 96.1767 227.11 94.8358 225.456 94.8358C223.802 94.8358 222.461 96.1767 222.461 97.8307C222.461 99.4847 223.802 100.826 225.456 100.826Z" fill="#F80D38"/>
<path opacity="0.8" fill-rule="evenodd" clip-rule="evenodd" d="M229.2 98.5794C230.854 98.5794 232.195 97.2385 232.195 95.5845C232.195 93.9305 230.854 92.5896 229.2 92.5896C227.546 92.5896 226.205 93.9305 226.205 95.5845C226.205 97.2385 227.546 98.5794 229.2 98.5794Z" fill="#F80D38"/>
<path opacity="0.8" fill-rule="evenodd" clip-rule="evenodd" d="M178.287 106.815C179.941 106.815 181.282 105.475 181.282 103.82C181.282 102.166 179.941 100.826 178.287 100.826C176.633 100.826 175.292 102.166 175.292 103.82C175.292 105.475 176.633 106.815 178.287 106.815Z" fill="#F80D38"/>
<path opacity="0.8" fill-rule="evenodd" clip-rule="evenodd" d="M168.553 61.1432C170.208 61.1432 171.548 59.8023 171.548 58.1483C171.548 56.4942 170.208 55.1534 168.553 55.1534C166.899 55.1534 165.559 56.4942 165.559 58.1483C165.559 59.8023 166.899 61.1432 168.553 61.1432Z" fill="#100DB1"/>
<path opacity="0.8" fill-rule="evenodd" clip-rule="evenodd" d="M160.318 61.1432C161.972 61.1432 163.313 59.8023 163.313 58.1483C163.313 56.4942 161.972 55.1534 160.318 55.1534C158.664 55.1534 157.323 56.4942 157.323 58.1483C157.323 59.8023 158.664 61.1432 160.318 61.1432Z" fill="#100DB1"/>
<path opacity="0.8" fill-rule="evenodd" clip-rule="evenodd" d="M161.066 57.3996C162.72 57.3996 164.061 56.0587 164.061 54.4047C164.061 52.7506 162.72 51.4098 161.066 51.4098C159.412 51.4098 158.071 52.7506 158.071 54.4047C158.071 56.0587 159.412 57.3996 161.066 57.3996Z" fill="#100DB1"/>
<path opacity="0.8" fill-rule="evenodd" clip-rule="evenodd" d="M152.081 57.3996C153.735 57.3996 155.076 56.0587 155.076 54.4047C155.076 52.7506 153.735 51.4098 152.081 51.4098C150.427 51.4098 149.086 52.7506 149.086 54.4047C149.086 56.0587 150.427 57.3996 152.081 57.3996Z" fill="#100DB1"/>
<path opacity="0.8" fill-rule="evenodd" clip-rule="evenodd" d="M146.84 57.3996C148.494 57.3996 149.835 56.0587 149.835 54.4047C149.835 52.7506 148.494 51.4098 146.84 51.4098C145.186 51.4098 143.845 52.7506 143.845 54.4047C143.845 56.0587 145.186 57.3996 146.84 57.3996Z" fill="#100DB1"/>
<path opacity="0.8" fill-rule="evenodd" clip-rule="evenodd" d="M158.071 67.133C159.725 67.133 161.066 65.7921 161.066 64.1381C161.066 62.484 159.725 61.1432 158.071 61.1432C156.417 61.1432 155.076 62.484 155.076 64.1381C155.076 65.7921 156.417 67.133 158.071 67.133Z" fill="#100DB1"/>
<path opacity="0.8" fill-rule="evenodd" clip-rule="evenodd" d="M158.071 88.846C159.725 88.846 161.066 87.5051 161.066 85.8511C161.066 84.1971 159.725 82.8562 158.071 82.8562C156.417 82.8562 155.076 84.1971 155.076 85.8511C155.076 87.5051 156.417 88.846 158.071 88.846Z" fill="#100DB1"/>
<path opacity="0.8" fill-rule="evenodd" clip-rule="evenodd" d="M205.241 88.846C206.895 88.846 208.235 87.5051 208.235 85.8511C208.235 84.1971 206.895 82.8562 205.241 82.8562C203.586 82.8562 202.246 84.1971 202.246 85.8511C202.246 87.5051 203.586 88.846 205.241 88.846Z" fill="#100DB1"/>
<path opacity="0.8" fill-rule="evenodd" clip-rule="evenodd" d="M206.738 82.1075C208.392 82.1075 209.733 80.7666 209.733 79.1126C209.733 77.4585 208.392 76.1177 206.738 76.1177C205.084 76.1177 203.743 77.4585 203.743 79.1126C203.743 80.7666 205.084 82.1075 206.738 82.1075Z" fill="#100DB1"/>
<path opacity="0.8" fill-rule="evenodd" clip-rule="evenodd" d="M214.974 82.1075C216.628 82.1075 217.969 80.7666 217.969 79.1126C217.969 77.4585 216.628 76.1177 214.974 76.1177C213.32 76.1177 211.979 77.4585 211.979 79.1126C211.979 80.7666 213.32 82.1075 214.974 82.1075Z" fill="#100DB1"/>
<path opacity="0.8" fill-rule="evenodd" clip-rule="evenodd" d="M227.702 82.1075C229.356 82.1075 230.697 80.7666 230.697 79.1126C230.697 77.4585 229.356 76.1177 227.702 76.1177C226.048 76.1177 224.707 77.4585 224.707 79.1126C224.707 80.7666 226.048 82.1075 227.702 82.1075Z" fill="#100DB1"/>
<path opacity="0.8" fill-rule="evenodd" clip-rule="evenodd" d="M240.431 85.8511C242.085 85.8511 243.426 84.5102 243.426 82.8562C243.426 81.2022 242.085 79.8613 240.431 79.8613C238.777 79.8613 237.436 81.2022 237.436 82.8562C237.436 84.5102 238.777 85.8511 240.431 85.8511Z" fill="#100DB1"/>
<path opacity="0.8" fill-rule="evenodd" clip-rule="evenodd" d="M240.431 85.8511C242.085 85.8511 243.426 84.5102 243.426 82.8562C243.426 81.2022 242.085 79.8613 240.431 79.8613C238.777 79.8613 237.436 81.2022 237.436 82.8562C237.436 84.5102 238.777 85.8511 240.431 85.8511Z" fill="#100DB1"/>
<path opacity="0.8" fill-rule="evenodd" clip-rule="evenodd" d="M278.615 103.82C280.269 103.82 281.61 102.48 281.61 100.826C281.61 99.1715 280.269 97.8307 278.615 97.8307C276.961 97.8307 275.62 99.1715 275.62 100.826C275.62 102.48 276.961 103.82 278.615 103.82Z" fill="#FECA57"/>
<path opacity="0.8" fill-rule="evenodd" clip-rule="evenodd" d="M272.626 119.544C274.28 119.544 275.621 118.203 275.621 116.549C275.621 114.895 274.28 113.554 272.626 113.554C270.972 113.554 269.631 114.895 269.631 116.549C269.631 118.203 270.972 119.544 272.626 119.544Z" fill="#FECA57"/>
<path opacity="0.8" fill-rule="evenodd" clip-rule="evenodd" d="M283.857 140.508C285.511 140.508 286.852 139.167 286.852 137.513C286.852 135.859 285.511 134.518 283.857 134.518C282.203 134.518 280.862 135.859 280.862 137.513C280.862 139.167 282.203 140.508 283.857 140.508Z" fill="#100DB1"/>
<path opacity="0.8" fill-rule="evenodd" clip-rule="evenodd" d="M274.872 147.246C276.526 147.246 277.867 145.906 277.867 144.252C277.867 142.598 276.526 141.257 274.872 141.257C273.218 141.257 271.877 142.598 271.877 144.252C271.877 145.906 273.218 147.246 274.872 147.246Z" fill="#100DB1"/>
<path opacity="0.8" fill-rule="evenodd" clip-rule="evenodd" d="M286.103 160.724C287.757 160.724 289.098 159.383 289.098 157.729C289.098 156.075 287.757 154.734 286.103 154.734C284.449 154.734 283.108 156.075 283.108 157.729C283.108 159.383 284.449 160.724 286.103 160.724Z" fill="#100DB1"/>
<path opacity="0.8" fill-rule="evenodd" clip-rule="evenodd" d="M301.078 162.221C302.732 162.221 304.073 160.88 304.073 159.226C304.073 157.572 302.732 156.231 301.078 156.231C299.424 156.231 298.083 157.572 298.083 159.226C298.083 160.88 299.424 162.221 301.078 162.221Z" fill="#100DB1"/>
<path opacity="0.8" fill-rule="evenodd" clip-rule="evenodd" d="M303.324 142.754C304.978 142.754 306.318 141.413 306.318 139.759C306.318 138.105 304.978 136.764 303.324 136.764C301.669 136.764 300.329 138.105 300.329 139.759C300.329 141.413 301.669 142.754 303.324 142.754Z" fill="#100DB1"/>
<path opacity="0.8" fill-rule="evenodd" clip-rule="evenodd" d="M175.292 58.897C176.946 58.897 178.287 57.5562 178.287 55.9021C178.287 54.2481 176.946 52.9072 175.292 52.9072C173.638 52.9072 172.297 54.2481 172.297 55.9021C172.297 57.5562 173.638 58.897 175.292 58.897Z" fill="#100DB1"/>
<path opacity="0.8" fill-rule="evenodd" clip-rule="evenodd" d="M144.594 64.8868C146.248 64.8868 147.588 63.5459 147.588 61.8919C147.588 60.2379 146.248 58.897 144.594 58.897C142.939 58.897 141.599 60.2379 141.599 61.8919C141.599 63.5459 142.939 64.8868 144.594 64.8868Z" fill="#763CEF"/>
<path opacity="0.8" fill-rule="evenodd" clip-rule="evenodd" d="M131.866 76.1177C133.52 76.1177 134.861 74.7768 134.861 73.1228C134.861 71.4687 133.52 70.1279 131.866 70.1279C130.212 70.1279 128.871 71.4687 128.871 73.1228C128.871 74.7768 130.212 76.1177 131.866 76.1177Z" fill="#FECA57"/>
<path opacity="0.8" fill-rule="evenodd" clip-rule="evenodd" d="M52.5008 78.3638C54.1548 78.3638 55.4957 77.023 55.4957 75.3689C55.4957 73.7149 54.1548 72.374 52.5008 72.374C50.8467 72.374 49.5059 73.7149 49.5059 75.3689C49.5059 77.023 50.8467 78.3638 52.5008 78.3638Z" fill="#100DB1"/>
<path opacity="0.8" fill-rule="evenodd" clip-rule="evenodd" d="M61.4856 67.133C63.1397 67.133 64.4805 65.7921 64.4805 64.1381C64.4805 62.484 63.1397 61.1432 61.4856 61.1432C59.8316 61.1432 58.4907 62.484 58.4907 64.1381C58.4907 65.7921 59.8316 67.133 61.4856 67.133Z" fill="#100DB1"/>
<path opacity="0.8" fill-rule="evenodd" clip-rule="evenodd" d="M7.57742 67.133C9.23145 67.133 10.5723 65.7921 10.5723 64.1381C10.5723 62.484 9.23145 61.1432 7.57742 61.1432C5.92338 61.1432 4.58252 62.484 4.58252 64.1381C4.58252 65.7921 5.92338 67.133 7.57742 67.133Z" fill="#763CEF"/>
<path opacity="0.8" fill-rule="evenodd" clip-rule="evenodd" d="M100.008 21.5077C101.662 21.5077 103.002 20.1668 103.002 18.5128C103.002 16.8588 101.662 15.5179 100.008 15.5179C98.3536 15.5179 97.0127 16.8588 97.0127 18.5128C97.0127 20.1668 98.3536 21.5077 100.008 21.5077Z" fill="#FECA57"/>
<path opacity="0.8" fill-rule="evenodd" clip-rule="evenodd" d="M113.908 30.311C115.563 30.311 116.903 28.9702 116.903 27.3161C116.903 25.6621 115.563 24.3212 113.908 24.3212C112.254 24.3212 110.914 25.6621 110.914 27.3161C110.914 28.9702 112.254 30.311 113.908 30.311Z" fill="#FECA57"/>
<path opacity="0.8" fill-rule="evenodd" clip-rule="evenodd" d="M128.232 8.07178C129.886 8.07178 131.227 6.73092 131.227 5.07688C131.227 3.42285 129.886 2.08199 128.232 2.08199C126.578 2.08199 125.237 3.42285 125.237 5.07688C125.237 6.73092 126.578 8.07178 128.232 8.07178Z" fill="#FECA57"/>
<path opacity="0.8" fill-rule="evenodd" clip-rule="evenodd" d="M105.997 6.07452C107.651 6.07452 108.992 4.73366 108.992 3.07962C108.992 1.42559 107.651 0.0847244 105.997 0.0847244C104.343 0.0847244 103.002 1.42559 103.002 3.07962C103.002 4.73366 104.343 6.07452 105.997 6.07452Z" fill="#FECA57"/>
<path opacity="0.8" fill-rule="evenodd" clip-rule="evenodd" d="M45.9344 38.2905C47.5884 38.2905 48.9292 36.9496 48.9292 35.2956C48.9292 33.6416 47.5884 32.3007 45.9344 32.3007C44.2803 32.3007 42.9395 33.6416 42.9395 35.2956C42.9395 36.9496 44.2803 38.2905 45.9344 38.2905Z" fill="#FECA57"/>
<path opacity="0.8" fill-rule="evenodd" clip-rule="evenodd" d="M264.885 59.1494C266.539 59.1494 267.88 57.8086 267.88 56.1545C267.88 54.5005 266.539 53.1596 264.885 53.1596C263.231 53.1596 261.89 54.5005 261.89 56.1545C261.89 57.8086 263.231 59.1494 264.885 59.1494Z" fill="#FECA57"/>
<path opacity="0.8" fill-rule="evenodd" clip-rule="evenodd" d="M229.949 58.2787C231.603 58.2787 232.944 56.9378 232.944 55.2838C232.944 53.6297 231.603 52.2889 229.949 52.2889C228.295 52.2889 226.954 53.6297 226.954 55.2838C226.954 56.9378 228.295 58.2787 229.949 58.2787Z" fill="#FECA57"/>
<path opacity="0.8" fill-rule="evenodd" clip-rule="evenodd" d="M211.231 58.2787C212.885 58.2787 214.226 56.9378 214.226 55.2838C214.226 53.6297 212.885 52.2889 211.231 52.2889C209.577 52.2889 208.236 53.6297 208.236 55.2838C208.236 56.9378 209.577 58.2787 211.231 58.2787Z" fill="#FECA57"/>
<path opacity="0.8" fill-rule="evenodd" clip-rule="evenodd" d="M3.08523 27.4506C4.73927 27.4506 6.08013 26.1097 6.08013 24.4557C6.08013 22.8016 4.73927 21.4608 3.08523 21.4608C1.43119 21.4608 0.090332 22.8016 0.090332 24.4557C0.090332 26.1097 1.43119 27.4506 3.08523 27.4506Z" fill="#100DB1"/>
<path opacity="0.8" fill-rule="evenodd" clip-rule="evenodd" d="M50.2552 126.282C51.9092 126.282 53.25 124.941 53.25 123.287C53.25 121.633 51.9092 120.292 50.2552 120.292C48.6011 120.292 47.2603 121.633 47.2603 123.287C47.2603 124.941 48.6011 126.282 50.2552 126.282Z" fill="#100DB1"/>
<path opacity="0.8" fill-rule="evenodd" clip-rule="evenodd" d="M48.0091 110.559C49.6631 110.559 51.004 109.218 51.004 107.564C51.004 105.91 49.6631 104.569 48.0091 104.569C46.355 104.569 45.0142 105.91 45.0142 107.564C45.0142 109.218 46.355 110.559 48.0091 110.559Z" fill="#100DB1"/>
<path opacity="0.8" fill-rule="evenodd" clip-rule="evenodd" d="M34.5315 84.3536C36.1856 84.3536 37.5264 83.0128 37.5264 81.3587C37.5264 79.7047 36.1856 78.3638 34.5315 78.3638C32.8775 78.3638 31.5366 79.7047 31.5366 81.3587C31.5366 83.0128 32.8775 84.3536 34.5315 84.3536Z" fill="#100DB1"/>
<path opacity="0.8" fill-rule="evenodd" clip-rule="evenodd" d="M34.5315 84.3536C36.1856 84.3536 37.5264 83.0128 37.5264 81.3587C37.5264 79.7047 36.1856 78.3638 34.5315 78.3638C32.8775 78.3638 31.5366 79.7047 31.5366 81.3587C31.5366 83.0128 32.8775 84.3536 34.5315 84.3536Z" fill="#100DB1"/>
<path opacity="0.8" fill-rule="evenodd" clip-rule="evenodd" d="M34.5315 74.6202C36.1856 74.6202 37.5264 73.2794 37.5264 71.6253C37.5264 69.9713 36.1856 68.6304 34.5315 68.6304C32.8775 68.6304 31.5366 69.9713 31.5366 71.6253C31.5366 73.2794 32.8775 74.6202 34.5315 74.6202Z" fill="#100DB1"/>
<path opacity="0.8" fill-rule="evenodd" clip-rule="evenodd" d="M36.0291 61.8919C37.6831 61.8919 39.024 60.551 39.024 58.897C39.024 57.243 37.6831 55.9021 36.0291 55.9021C34.375 55.9021 33.0342 57.243 33.0342 58.897C33.0342 60.551 34.375 61.8919 36.0291 61.8919Z" fill="#100DB1"/>
<path opacity="0.8" fill-rule="evenodd" clip-rule="evenodd" d="M51.7522 56.6508C53.4063 56.6508 54.7471 55.31 54.7471 53.6559C54.7471 52.0019 53.4063 50.661 51.7522 50.661C50.0982 50.661 48.7573 52.0019 48.7573 53.6559C48.7573 55.31 50.0982 56.6508 51.7522 56.6508Z" fill="#100DB1"/>
<path opacity="0.8" fill-rule="evenodd" clip-rule="evenodd" d="M67.4754 55.9021C69.1294 55.9021 70.4703 54.5613 70.4703 52.9072C70.4703 51.2532 69.1294 49.9123 67.4754 49.9123C65.8213 49.9123 64.4805 51.2532 64.4805 52.9072C64.4805 54.5613 65.8213 55.9021 67.4754 55.9021Z" fill="#100DB1"/>
<path opacity="0.8" fill-rule="evenodd" clip-rule="evenodd" d="M189.517 102.323C191.171 102.323 192.512 100.982 192.512 99.3281C192.512 97.6741 191.171 96.3332 189.517 96.3332C187.863 96.3332 186.522 97.6741 186.522 99.3281C186.522 100.982 187.863 102.323 189.517 102.323Z" fill="#F80D38"/>
<path opacity="0.8" fill-rule="evenodd" clip-rule="evenodd" d="M173.794 88.846C175.448 88.846 176.789 87.5051 176.789 85.8511C176.789 84.1971 175.448 82.8562 173.794 82.8562C172.14 82.8562 170.799 84.1971 170.799 85.8511C170.799 87.5051 172.14 88.846 173.794 88.846Z" fill="#F80D38"/>
<path opacity="0.8" fill-rule="evenodd" clip-rule="evenodd" d="M196.256 31.1942C197.91 31.1942 199.251 29.8533 199.251 28.1993C199.251 26.5453 197.91 25.2044 196.256 25.2044C194.602 25.2044 193.261 26.5453 193.261 28.1993C193.261 29.8533 194.602 31.1942 196.256 31.1942Z" fill="#F80D38"/>
<path opacity="0.8" fill-rule="evenodd" clip-rule="evenodd" d="M212.728 44.6712C214.382 44.6712 215.723 43.3304 215.723 41.6763C215.723 40.0223 214.382 38.6814 212.728 38.6814C211.074 38.6814 209.733 40.0223 209.733 41.6763C209.733 43.3304 211.074 44.6712 212.728 44.6712Z" fill="#F80D38"/>
<path opacity="0.8" fill-rule="evenodd" clip-rule="evenodd" d="M89.1887 134.518C90.8428 134.518 92.1836 133.177 92.1836 131.523C92.1836 129.869 90.8428 128.528 89.1887 128.528C87.5347 128.528 86.1938 129.869 86.1938 131.523C86.1938 133.177 87.5347 134.518 89.1887 134.518Z" fill="#F80D38"/>
<path opacity="0.8" fill-rule="evenodd" clip-rule="evenodd" d="M129.619 111.308C131.273 111.308 132.614 109.967 132.614 108.313C132.614 106.659 131.273 105.318 129.619 105.318C127.965 105.318 126.625 106.659 126.625 108.313C126.625 109.967 127.965 111.308 129.619 111.308Z" fill="#F80D38"/>
<path opacity="0.8" fill-rule="evenodd" clip-rule="evenodd" d="M152.081 118.046C153.735 118.046 155.076 116.705 155.076 115.051C155.076 113.397 153.735 112.056 152.081 112.056C150.427 112.056 149.086 113.397 149.086 115.051C149.086 116.705 150.427 118.046 152.081 118.046Z" fill="#F80D38"/>
<path opacity="0.8" fill-rule="evenodd" clip-rule="evenodd" d="M156.574 139.011C158.228 139.011 159.568 137.67 159.568 136.016C159.568 134.362 158.228 133.021 156.574 133.021C154.919 133.021 153.579 134.362 153.579 136.016C153.579 137.67 154.919 139.011 156.574 139.011Z" fill="#F80D38"/>
<path opacity="0.8" fill-rule="evenodd" clip-rule="evenodd" d="M158.82 155.482C160.474 155.482 161.815 154.142 161.815 152.488C161.815 150.834 160.474 149.493 158.82 149.493C157.166 149.493 155.825 150.834 155.825 152.488C155.825 154.142 157.166 155.482 158.82 155.482Z" fill="#F80D38"/>
<path opacity="0.8" fill-rule="evenodd" clip-rule="evenodd" d="M247.918 79.8613C249.572 79.8613 250.913 78.5204 250.913 76.8664C250.913 75.2124 249.572 73.8715 247.918 73.8715C246.264 73.8715 244.923 75.2124 244.923 76.8664C244.923 78.5204 246.264 79.8613 247.918 79.8613Z" fill="#F80D38"/>
<path opacity="0.8" fill-rule="evenodd" clip-rule="evenodd" d="M255.406 76.1177C257.06 76.1177 258.4 74.7768 258.4 73.1228C258.4 71.4687 257.06 70.1279 255.406 70.1279C253.752 70.1279 252.411 71.4687 252.411 73.1228C252.411 74.7768 253.752 76.1177 255.406 76.1177Z" fill="#F80D38"/>
<path opacity="0.8" fill-rule="evenodd" clip-rule="evenodd" d="M248.667 76.8664C250.321 76.8664 251.662 75.5255 251.662 73.8715C251.662 72.2175 250.321 70.8766 248.667 70.8766C247.013 70.8766 245.672 72.2175 245.672 73.8715C245.672 75.5255 247.013 76.8664 248.667 76.8664Z" fill="#F80D38"/>
<path opacity="0.8" fill-rule="evenodd" clip-rule="evenodd" d="M244.174 31.9429C245.828 31.9429 247.169 30.6021 247.169 28.948C247.169 27.294 245.828 25.9531 244.174 25.9531C242.52 25.9531 241.179 27.294 241.179 28.948C241.179 30.6021 242.52 31.9429 244.174 31.9429Z" fill="#F80D38"/>
<path opacity="0.8" fill-rule="evenodd" clip-rule="evenodd" d="M242.677 31.1942C244.331 31.1942 245.671 29.8533 245.671 28.1993C245.671 26.5453 244.331 25.2044 242.677 25.2044C241.023 25.2044 239.682 26.5453 239.682 28.1993C239.682 29.8533 241.023 31.1942 242.677 31.1942Z" fill="#F80D38"/>
<path opacity="0.8" fill-rule="evenodd" clip-rule="evenodd" d="M223.21 24.4557C224.864 24.4557 226.205 23.1148 226.205 21.4608C226.205 19.8068 224.864 18.4659 223.21 18.4659C221.556 18.4659 220.215 19.8068 220.215 21.4608C220.215 23.1148 221.556 24.4557 223.21 24.4557Z" fill="#F80D38"/>
<path opacity="0.8" fill-rule="evenodd" clip-rule="evenodd" d="M233.692 24.4557C235.346 24.4557 236.687 23.1148 236.687 21.4608C236.687 19.8068 235.346 18.4659 233.692 18.4659C232.038 18.4659 230.697 19.8068 230.697 21.4608C230.697 23.1148 232.038 24.4557 233.692 24.4557Z" fill="#F80D38"/>
<path opacity="0.8" fill-rule="evenodd" clip-rule="evenodd" d="M229.949 31.9429C231.603 31.9429 232.944 30.6021 232.944 28.948C232.944 27.294 231.603 25.9531 229.949 25.9531C228.295 25.9531 226.954 27.294 226.954 28.948C226.954 30.6021 228.295 31.9429 229.949 31.9429Z" fill="#F80D38"/>
<path opacity="0.8" fill-rule="evenodd" clip-rule="evenodd" d="M214.974 32.6917C216.628 32.6917 217.969 31.3508 217.969 29.6968C217.969 28.0427 216.628 26.7019 214.974 26.7019C213.32 26.7019 211.979 28.0427 211.979 29.6968C211.979 31.3508 213.32 32.6917 214.974 32.6917Z" fill="#F80D38"/>
<path opacity="0.8" fill-rule="evenodd" clip-rule="evenodd" d="M200 29.6968C201.654 29.6968 202.995 28.3559 202.995 26.7019C202.995 25.0478 201.654 23.707 200 23.707C198.346 23.707 197.005 25.0478 197.005 26.7019C197.005 28.3559 198.346 29.6968 200 29.6968Z" fill="#F80D38"/>
<path opacity="0.8" fill-rule="evenodd" clip-rule="evenodd" d="M244.924 38.6814C246.578 38.6814 247.919 37.3406 247.919 35.6866C247.919 34.0325 246.578 32.6917 244.924 32.6917C243.27 32.6917 241.929 34.0325 241.929 35.6866C241.929 37.3406 243.27 38.6814 244.924 38.6814Z" fill="#F80D38"/>
<path opacity="0.8" fill-rule="evenodd" clip-rule="evenodd" d="M262.892 31.9429C264.546 31.9429 265.887 30.6021 265.887 28.948C265.887 27.294 264.546 25.9531 262.892 25.9531C261.238 25.9531 259.897 27.294 259.897 28.948C259.897 30.6021 261.238 31.9429 262.892 31.9429Z" fill="#F80D38"/>
<path opacity="0.8" fill-rule="evenodd" clip-rule="evenodd" d="M244.924 76.8664C246.578 76.8664 247.919 75.5255 247.919 73.8715C247.919 72.2175 246.578 70.8766 244.924 70.8766C243.27 70.8766 241.929 72.2175 241.929 73.8715C241.929 75.5255 243.27 76.8664 244.924 76.8664Z" fill="#F80D38"/>
<path opacity="0.8" fill-rule="evenodd" clip-rule="evenodd" d="M224.708 98.5794C226.362 98.5794 227.703 97.2385 227.703 95.5845C227.703 93.9305 226.362 92.5896 224.708 92.5896C223.054 92.5896 221.713 93.9305 221.713 95.5845C221.713 97.2385 223.054 98.5794 224.708 98.5794Z" fill="#F80D38"/>
<path opacity="0.8" fill-rule="evenodd" clip-rule="evenodd" d="M226.205 97.8307C227.859 97.8307 229.2 96.4898 229.2 94.8358C229.2 93.1817 227.859 91.8409 226.205 91.8409C224.551 91.8409 223.21 93.1817 223.21 94.8358C223.21 96.4898 224.551 97.8307 226.205 97.8307Z" fill="#F80D38"/>
</svg>
